<svg id="armsupdated_Image" data-name="armsupdated Image" xmlns="http://www.w3.org/2000/svg" viewBox="0 0 500.56 500.6"><defs><style>.cls-1{fill:#fff;}</style></defs><title>armsupdatedvectorised</title><path class="cls-1" d="M.45,501.1V.5H501V501.1ZM106.79,266.3a9.83,9.83,0,0,1,1.85-2c7.6-4.61,15.19-9.25,23.81-11.79.62-.19,1.22-.47,1.83-.7l-.11-.83c-2.28.21-4.8-.13-6.79.73-4.37,1.9-8.43,4.48-12.68,6.66-3.67,1.89-7.62,3.32-10.15,7.14l1.3,1c1.54,3.54,4.61,3.71,7.78,3.36,1.34-.15,3.26-.38,3.82-1.27,2.28-3.57,4.13-7.41,6.14-11.15l-.29-.46Zm300.7-.34c-3.45-1.92-6.9-3.87-10.38-5.75-2.26-1.22-4.58-2.34-7.4-3.76,2.41,4.4,4.48,8.22,6.58,12,.17.31.54.69.84.71a63.09,63.09,0,0,0,7.5.49c1.67-.05,3.06-2.27,2.78-3.79l2.21-.25.27-.93c-2.18-1.53-4.24-3.26-6.54-4.55-5.35-3-10.82-5.74-16.22-8.61-1.49-.8-5.43-.69-7,.37,8.68,2.45,16.42,6.68,24,11.26A26.88,26.88,0,0,1,407.49,266Zm-269.89-105a5,5,0,0,1,.34-.89c7.59-12.15,16.72-22.79,29.32-30.05.93-.53,1.78-1.19,2.66-1.79l-.34-.82c-4.66,1.23-9.5,2-13.94,3.78-7.54,3-14.07,7.43-16.29,15.94-1,3.91-1.71,7.92-2.42,11.91-.1.55.48,1.22.74,1.84a23.82,23.82,0,0,0,3.18-.4c7.52-2,13.79-6.41,20.13-10.7,7.09-4.8,8.22-11.94,8.47-20-.87.49-1.41.77-1.93,1.09a89.73,89.73,0,0,0-25.65,24.75C140.57,157.46,139,159.15,137.6,160.92Zm239.29,0c-.84-.92-1.71-1.81-2.52-2.76-4.86-5.78-9.49-11.78-14.64-17.31a58.18,58.18,0,0,0-14.82-11.16,63.45,63.45,0,0,0,.7,7c.88,4.13,1.89,8.29,5.47,11.1,6,4.73,12.34,9.07,19.61,11.7a46.33,46.33,0,0,0,6.12,1.36c.26-.62.8-1.26.75-1.85a60.58,60.58,0,0,0-.84-6.15c-1.41-7.4-4.26-13.89-11-18.2-6.43-4.13-13.52-5.95-21.07-6.65,2.3,1.81,4.72,3.42,7.14,5C362.59,140.15,370.38,150,376.89,160.92ZM172.68,329.59c4,2.4,7.7,4.46,11.22,6.83a24.8,24.8,0,0,1,8.49,10.19,19,19,0,0,0,6.37,7.26q27.59,20.16,55,40.58c1.47,1.09,2.41,1.13,3.92.05q30.57-22,61.2-43.87a6.55,6.55,0,0,0,2.4-2.84c2.35-6.71,7.81-10.49,13.24-14.27a37.45,37.45,0,0,1,4.24-2.15c2.14-1.12,3.8-1,4.46,1.88,2.34-1.67,4.5-3.17,6.61-4.74A3.61,3.61,0,0,0,351,327c1.2-3.1,2.37-6.22,3.45-9.36,1.61-4.68,2.58-9.66,4.81-14,3.73-7.29,8.15-14.24,12.48-21.22,1.73-2.79,3.51-5.47,2.44-8.88q-14.52-46-29.1-92c-.38-1.21-1-1.41-2.18-1.63a54.12,54.12,0,0,1-8.73-2.28c-2.78-1.05-3.77-3.17-3.54-6.13.21-2.73,1.89-4.53,4-6,4.74-3.28,4.76-3.25,2.4-8.65a.85.85,0,0,1-.09-.22c-.21-2.59-1.88-2.69-4-2.7q-44.26-.28-88.53-.7-31.91-.25-63.82-.43c-.67,0-1.78.33-1.95.78-1.2,3.18-2.22,6.42-3.34,9.8a10.14,10.14,0,0,1,8.3,7.07,5.85,5.85,0,0,1-1.82,6.79c-2.91,2.63-6.46,2.92-10,3.14-1.71.1-2.66.65-2.94,2.36a12.43,12.43,0,0,1-.61,1.81q-14.49,43.52-29,87c-1.28,3.84.25,7.25,2.21,10.3,2.62,4.07,6.44,7.51,8.45,11.82a230.38,230.38,0,0,1,9.84,25.18c2.09,6.36,5.61,11.12,11.45,14.28Zm-63.5-8.1.42.68c-.46.52-.82,1.33-1.39,1.52-3.21,1-5.16,3.52-7.15,6a41.47,41.47,0,0,1-16,12.64c-9.66,4.08-16.34,11.08-21.21,20.19a117.55,117.55,0,0,0-10.76,30.58A199.66,199.66,0,0,0,50,413.75c-.28,2.49.52,5.1.85,7.65a37.19,37.19,0,0,0,7.73,18.54c1.88,2.39,4.23,4.35,7.37,4.47,6.52.25,13.08.58,19.58.19,9-.53,18-1.22,27,.66,7.49,1.56,14.88,3.53,22.71,3.12a39.48,39.48,0,0,0,21.28-7.72C163.07,436,167.26,429.39,170,422a7.15,7.15,0,0,0-.86-7.19c-6,4.68-12.73,5.07-19.69,3.6-3.57-.76-7.07-1.85-10.62-2.72-4.38-1.07-4.72-1.43-5-6.1a21.19,21.19,0,0,1,0-2.39,46.23,46.23,0,0,1,7-22.14c3.39-5.41,7.29-10.49,10.84-15.8,5.74-8.59,9.31-17.92,9.63-28.39.3-10.32-2.28-20.13-5.34-29.81-3.32-10.51-7.84-20.41-15.7-28.44a6.7,6.7,0,0,1-1.11-2.08c-2.54-6-4.92-12.12-7.64-18.06-1.09-2.39-2.91-4.45-4.62-7-2.2,3.57-4.62,6.48-5.91,9.83-1.95,5-5.3,7-10.39,6.81-.08,0-.17.06-.24,0-.9-.33-2.06-.43-2.64-1.06-3.1-3.33-6-6.81-9.07-10.19a14.15,14.15,0,0,0-2.21-1.66,30.45,30.45,0,0,0,2.2,22.45,4.37,4.37,0,0,1-.17,2.9c-1.73,5.17-2.72,10.36-.56,15.65a9.29,9.29,0,0,1-.26,8.12,73.71,73.71,0,0,1-4.52,7,30.64,30.64,0,0,1-2.44,2.79C96.31,323,102.6,323,109.18,321.49Zm235.6,93.31c-1.55,2.7-1.49,4.91-.16,8.45,7.06,18.88,25.93,28.61,46.37,24.17,11.41-2.48,22.78-4.42,34.44-3.05a94.14,94.14,0,0,0,20.55.38,13.21,13.21,0,0,0,9.66-5C461,433,463.1,424.9,464,416.56c.35-3.38-.37-6.89-.78-10.32a125.85,125.85,0,0,0-13.32-44.19c-4.34-8.23-10.27-15-19.06-18.78a47.21,47.21,0,0,1-19-14.94,14.74,14.74,0,0,0-5.7-4.14c-1.57-.69-1.73-1.24-1.19-2.75,6.62,1.89,12.74,1.13,18.4-3.29a51.33,51.33,0,0,1-3.7-4.2c-2.87-4-5.69-8.1-3.63-13.42,2.16-5.56,1.37-10.93-.69-16.31a4,4,0,0,1,0-2.5c.95-3.11,2.26-6.12,3-9.28,1.07-4.39.47-8.76-.83-13.26a12.59,12.59,0,0,0-1.92,1.42c-2.52,2.78-5.11,5.51-7.41,8.46-1.82,2.34-3.65,3.84-6.81,2.69-1.08-.4-2.42-.09-3.54-.43a4.18,4.18,0,0,1-2.21-1.62c-2.74-4.55-5.36-9.17-8.38-14.4-1.94,2.89-3.82,5.09-5,7.61-2.44,5.19-4.49,10.56-6.74,15.85a22.79,22.79,0,0,1-2,4c-3.21,4.73-7,9.13-9.71,14.14a97.14,97.14,0,0,0-10,31.32,75.84,75.84,0,0,0-.49,17.88c.84,9.79,5.44,18.25,11.1,26.11,5,6.93,10.31,13.63,13.11,21.87,2.09,6.13,3.4,12.3,2.12,18.79-.24,1.24-.63,2.16-2.15,2.43a85.88,85.88,0,0,0-10.94,2.37C358.81,420.17,351.63,419.6,344.78,414.8ZM104.14,214.4l-.83-.14-.15-2.76a32.4,32.4,0,0,0-.3-4.75c-1.52-7.31-5.22-13.68-9.13-19.87-2.23-3.55-5.17-6.69-9.26-8.28-2-.75-4-1.73-6.15-.85-.68,7,.87,13.54,3.42,19.77,1.83,4.45,4,8.76,8.39,11.56,2.32,1.47,4,3.86,6.15,5.67A11.45,11.45,0,0,0,100,216.9c1.68.57,2.61,1.29,2.13,3.21-.57,2.33-1,4.67-1.66,7.45-2.82-14.41-13.12-20.93-25.3-25.55,4.68,11.18,12.81,19.93,20.28,29.14-8.9-8.53-16.72-17.85-22.09-29.19,0,6.25-1.62,12.5,1.26,18.53,1.28,2.67,1.87,5.57,4.48,7.65,5.4,4.3,11.64,7,17.7,10A4.25,4.25,0,0,1,98.67,241c.22,1.53-.26,3.15-.31,4.73-.07,2.24,0,4.48,0,7.33-1-1-1.52-1.53-2.08-1.94-1.57-1.16-2.44-2.31-.57-4,.38-.34.36-1.16.42-1.78.29-2.69-1.75-4-3.22-5.79-4.17-5-9.28-7.46-15.84-6.72-2.92.33-5.27,1.77-6.22,4.41-.77,2.12.74,4,2.29,5.57s3.19,3.32,4.94,4.8a13.38,13.38,0,0,0,12.14,3,3.67,3.67,0,0,1,2.81.49,22.06,22.06,0,0,1,3.43,3.84c1.74,2.34,3.33,4.8,5,7.15,1.16,1.59,2.57,1.19,4,.31,1.75-1.1,3.46-2.28,5.28-3.25,4.86-2.58,9.8-5,14.66-7.61a13.63,13.63,0,0,0,6.87-8.72c.26-.91.65-1.79.84-2.72.68-3.45,1.31-6.92,2-10.38l-.76-.23a129.93,129.93,0,0,0-27.54,27.32,64.33,64.33,0,0,1,12.38-15.59c4.83-4.55,9.94-8.8,15-13.21-5.58.47-11,1.64-15.73,4.84-5.12,3.46-9.69,7.37-11.92,13.45-.88,2.39-1.8,4.91-4.76,6.37a10.67,10.67,0,0,1-.46-2.5c.38-5.71.74-11.42,1.32-17.1a38.56,38.56,0,0,1,1.64-7.4,2.69,2.69,0,0,1,2.21-1.4c4.85,1.37,9.64,3,14.47,4.48a7.56,7.56,0,0,0,3.07.2c4-.53,8-1.11,12-1.81a30.53,30.53,0,0,0,4.27-1.42l-.08-.74c-4.37-2.31-6.33-6-6.41-10.77a3.81,3.81,0,0,0-1.29-2.14c-3.06-3.15-6.72-2.91-10.3-1.34-3.2,1.39-6.23,3.2-9.29,4.89-2.22,1.22-4.38,2.54-6.57,3.81l-.65-.5c1.65-5,3.28-10.06,5-15.07a1.55,1.55,0,0,1,1.24-.75A42,42,0,0,1,132.55,211a4.77,4.77,0,0,1,2.33,4.4c-.29,6.23,8.65,12.66,14.93,11a5.54,5.54,0,0,0,3.15-2.9c1.32-3.22,0-7.3-2.78-9.56-3.89-3.21-8.47-4.41-13.42-4.68a14.58,14.58,0,0,1-4.49-1.07c-1.27-.5-2.27-1.64-3.54-2.13-5.52-2.13-11.1-4.12-16.6-6.15,1.77-3.34,2.05-3.38,5.53-1.14a20.8,20.8,0,0,0,3.86,1.86c2.56,1,5.14,1.92,7.76,2.74a26.42,26.42,0,0,0,13.16.8,39.35,39.35,0,0,0,10-3.78c3.13-1.62,6.33-3.41,8.32-6.54l-.17-.85-42.11,2.68,0-.58c14.35-1.26,28.64-3.16,43.19-2.63a8.07,8.07,0,0,0-2.21-2,29.63,29.63,0,0,0-16.17-5c-4.42,0-9,0-13.21,1.15s-7.92,3.91-11.86,5.94c-.75.39-1.56.67-2.34,1l-.48-.6c2.38-4.14,4.8-8.26,7.13-12.43,1.8-3.22,3.91-3.38,6.85-1.12,2.52,1.94,5.33,4,8.32,4.71,4.36,1.1,9,1.12,13.51,1.56a4.33,4.33,0,0,0,1.86-.2c2.51-.9,5-1.89,7.49-2.85-11.36-4.81-22.62-9.87-35.52-6.39,2.92-1.56,5.82-3.41,8.92-3.83,6.37-.88,12.84-1.09,19.27-1.35a4.74,4.74,0,0,1,3.28,1.54c6.74,7.63,14.35,7.85,23,4.81a5.28,5.28,0,0,0,3.08-6.63c-.8-2.66-2.3-4.84-5.05-5.62-2.34-.65-4.82-.77-7.21-1.26a12.6,12.6,0,0,0-13,4.59,2.64,2.64,0,0,1-1.71.86c-5.91.08-11.82.15-17.73.06a16,16,0,0,0-8.4,2.15c-.51.29-1,.53-1.56.79.59-1.46,1.58-2.53,2.18-3.79.74-1.56,1.68-1.43,3.08-1.1a29.84,29.84,0,0,0,6.28,1c4.88.11,9.76,0,14.64-.12a4.89,4.89,0,0,0,3-1.27c2.94-2.85,6.16-4.85,10.43-4.42,2.05.2,3.9.16,5.31-1.73,1.17-1.59,2.55-3,4.26-5-1.14.14-1.53.16-1.9.25-10.23,2.45-20.42,5-30.7,7.28-3.55.77-7.23,2.11-11,.51l-2.21,1.92c.36-1.23,1.29-2.14,1.47-3.18a34.17,34.17,0,0,0,.52-6.92c-.23-6.94-.52-13.89-1-20.82-.28-3.86-1-7.68-1.6-11.72-5.18,3.47-7.29,8.72-9.58,13.73a4.85,4.85,0,0,0,1.15,6.16,13.15,13.15,0,0,1,3,4.82c1.28,2.94,1.48,5.92-.81,8.9a44.18,44.18,0,0,0,.79-5.37c.13-5-7-13.65-13.93-13.58-2.85,0-5.45,1.17-6.75,3.8a6.41,6.41,0,0,0,.82,7c3.07,4.06,6.82,7.23,11.93,8.17a7.14,7.14,0,0,1,5,3.28,42,42,0,0,1,3.68,5.87,6.44,6.44,0,0,1,.37,4.56c-1,2.3-2.68,4.29-4.12,6.39a4.3,4.3,0,0,1-1,.74c-.2-.49-.32-.76-.42-1-2-5.47-3.8-11-6-16.38-1-2.42-2.32-4.93-5.33-5.63-2.1,2.59-1.64,7.73.55,10.07,1.66,1.77,3.64,3.78,4.13,6,.88,4,2.5,7,6.33,8.67L118,183.77l.41-.83a27.34,27.34,0,0,1-3.59-2.66,3.26,3.26,0,0,1-.75-2.45c.89-5.86-1.34-10.74-6.57-14-2.06-1.28-5.15-.53-5.66,1.79a52.88,52.88,0,0,0-1,9.9c-.17,5.65,3.84,9.65,9.53,9.67-.6,4.13-1.19,8.22-1.79,12.31h-.9c-.6-4.18.66-8.72-2.79-12.31-3-3.11-5.88-6.2-10.59-7.12L105,196.55l-.72.42-11-18.72c.33,2.78.14,5.36,1,7.51,1.35,3.29,3.58,6.21,5.18,9.41a13.46,13.46,0,0,0,5.2,6.06,3.61,3.61,0,0,1,1.68,1.87C107.28,207.21,105.27,210.72,104.14,214.4ZM381.06,164c-1.45.22-2.68.73-3.74.51-12.09-2.54-24.16-5.18-36.23-7.81-1-.22-2-.55-3-.84a19.27,19.27,0,0,0,2.86,4.27,5.93,5.93,0,0,0,6,2.49c2.76-.41,5.78,0,7.6,2.12,3,3.56,6.75,3.93,10.91,3.58,1.27-.11,2.56.07,3.84,0,4.34-.12,8.78.83,13-1.11a1.59,1.59,0,0,1,1.47.28c1.09,1.46,2.05,3,3,4.44-2.76-.87-5.4-2.28-8.11-2.44-6.45-.38-12.94-.13-19.41-.23a3.22,3.22,0,0,1-2.09-1,12.69,12.69,0,0,0-12-4.62c-1.18.16-2.36.37-3.54.44a12.46,12.46,0,0,0-8.08,3.89c-2.72,2.66-2.7,7,.26,8.11A41.55,41.55,0,0,0,345.8,179c4.8.33,8.64-2.51,11.73-6a5.25,5.25,0,0,1,4.33-2c4.63.09,9.27.06,13.87.43a26.64,26.64,0,0,1,13.57,5,35.23,35.23,0,0,0-18.26-.07c-5.84,1.68-11.83,3.06-17.42,6.16a23,23,0,0,0,2.43,1,44,44,0,0,0,7.59,2,21.49,21.49,0,0,0,6.37-.79c3.67-.76,7.73.54,11-2.17,1.54-1.26,3.15-2.43,4.7-3.67,1.34-1.08,2.84-1.7,4.21-.38a20.19,20.19,0,0,1,3,4.05c2.12,3.45,4.12,7,6.17,10.45l-.57.56c-4.9-2.42-9.63-5.27-14.72-7.13s-10.85-1.18-16.34-.67c-4.92.46-13,4.14-14.69,7.13,14.63-1,28.88,1,43.16,2.53-14.1-.15-28.07-2.77-42.58-1.73a10.79,10.79,0,0,0,1.76,1.93q5.7,3.48,11.48,6.83c2.79,1.62,5.87,2,9.06,2.07a31.09,31.09,0,0,0,12.9-2.4c2.78-1.13,5.72-2,8.31-3.43,3.51-2,4-2,5.42,1.22-5.32,2-10.69,3.9-16,6-3.71,1.44-7,3.57-11.34,3.78-5.13.26-10.11,2.13-13,7.36-2,3.67-.78,8.72,2.74,9.5,6.41,1.41,15.08-5,14.83-11a5.08,5.08,0,0,1,2.63-4.74A44.27,44.27,0,0,1,399,203.54c4.14-.74,4.17-.76,5.84,3.31.12.29.31.55.41.85L408.79,219l-.62.41c-1.52-.91-3-1.83-4.56-2.72-3.11-1.8-6.26-3.52-9.33-5.39-3.85-2.35-9.11-2.1-12.32.81a3.29,3.29,0,0,0-1.2,1.94,12.51,12.51,0,0,1-6.5,11.33,11.46,11.46,0,0,0,3.91,1.77c4.36.79,8.75,1.41,13.13,2.09a3.26,3.26,0,0,0,1.41.1c4.56-1.49,9.12-3,13.66-4.58,3.18-1.1,3.76-1,4.41,2.32.86,4.43,1.46,8.92,2,13.4.36,3.32.4,6.67.49,10a7.72,7.72,0,0,1-.52,2l-.8.19c-1-1.53-2.08-3-3-4.61-1.54-2.65-2.72-5.54-4.52-8a29.53,29.53,0,0,0-13-9.65c-3.44-1.41-7.26-1.88-10.91-2.78l-.13.66c10.57,8.08,20.42,16.85,27.35,28.42a127.64,127.64,0,0,0-28.05-27.61,43.76,43.76,0,0,0,3.83,16.6,9.75,9.75,0,0,0,2.63,3.61,49.41,49.41,0,0,0,6.6,4.24c5.56,3.1,11.16,6.15,16.82,9.06a3.44,3.44,0,0,0,3-.15,19,19,0,0,0,3.25-3.81c1.84-2.5,3.52-5.12,5.44-7.56a2.46,2.46,0,0,1,3.09-.71,11.39,11.39,0,0,0,5.11.27c6.22-.78,9.87-5.27,13.31-9.82,1.91-2.52,1.6-3.71-.72-5.94-3.31-3.18-7.35-2.51-11.19-1.69-4.72,1-7.81,4.55-10.91,8a5,5,0,0,0-.56,6.62,2.29,2.29,0,0,1,0,2.07,23.68,23.68,0,0,1-3,2.82c-.23-4.44-.51-8.46-.58-12.48a2.84,2.84,0,0,1,1.42-2c2.79-1.46,5.76-2.57,8.49-4.12,3.56-2,7.48-3.87,10.27-6.73,2.36-2.41,3.78-6,4.8-9.38,1.59-5.22.74-10.67.25-16.1-5.28,11.36-13.1,20.68-22,29.22,3.57-4.73,7.61-9.1,11.13-13.85s6.52-9.9,9.75-14.87l-.86-.64c-12,4.83-22.26,11.35-25.07,25.76-.61-2.69-1.07-4.95-1.63-7.19-.51-2.07.27-3.07,2.33-3.47a6.28,6.28,0,0,0,2.85-1.41c2.37-2.13,4.44-4.64,6.94-6.58a23.18,23.18,0,0,0,6.7-8.13,45.09,45.09,0,0,0,5-23c-2.88-1.06-8.1,1.25-10.78,3.67-4.94,4.44-7.68,10.29-10.57,16.09-2.39,4.81-4,9.7-3.59,15.13a6.56,6.56,0,0,1-.34,1.71l-.61,0c-.93-3.42-3-6.57-2.28-10.36a3.87,3.87,0,0,1,1.38-2.51c3-1.73,4.7-4.41,6.1-7.44a28.89,28.89,0,0,1,3.61-6.46c2.39-2.86,1.74-5.91,1.63-9.4-1.77,3.49-3.2,6.7-5,9.7s-3.95,5.91-5.95,8.85l-.38-.23L420.21,178l-.6-.41c-4.2,1.5-7.14,4.6-10.14,7.76-3.37,3.56-1.9,8.13-2.76,12.21l-.83,0c-.58-4.15-1.15-8.3-1.74-12.53a8.17,8.17,0,0,0,9-6,21.87,21.87,0,0,0-.5-13.63,4.13,4.13,0,0,0-5.27-1.88,13.48,13.48,0,0,0-7,14.26,3.31,3.31,0,0,1-.73,2.45,31.06,31.06,0,0,1-3.62,2.87l-2-3.71a35.62,35.62,0,0,0,3.54-2.72,5.07,5.07,0,0,0,1.62-2.6,14.83,14.83,0,0,1,5.09-9.48c2.43-2.15,2.74-7.39.37-10.37-1.07,1-2.52,1.74-3.12,2.93-2,3.95-3.84,8-5.54,12.13-1.1,2.67-1.85,5.49-2.75,8.25l-.7.13a58.87,58.87,0,0,0-3.62-5.77,5.09,5.09,0,0,1-.47-6.19A65.21,65.21,0,0,1,393,159a4.83,4.83,0,0,1,2.67-1.85c5.15-.85,9.09-3.51,12.48-7.34,2.51-2.84,2.77-5.86,1.73-8.14-1.22-2.66-5.1-4.24-8.18-3.64a15.21,15.21,0,0,0-12,18.52,11.33,11.33,0,0,1-1.44-4.22c-.21-4.12,2.08-7.21,4.54-10.23a3.33,3.33,0,0,0,.78-2.56,46.61,46.61,0,0,0-3.36-8.77c-1.56-2.81-3.06-5.91-6.87-7.44-.79,8.45-1.86,16.68-2.21,25-.25,5.84-1,11.89,2.11,17.74ZM361.71,404.75a31.71,31.71,0,0,0-10-13.17,30.87,30.87,0,0,0-15.26-6.16,45.78,45.78,0,0,0-7.85-.35c-2.83.1-5.64.67-8.47.77-.87,0-1.77-.82-3.22-1.54,8.58-4.21,16.3-8,24.06-11.75a3.57,3.57,0,0,1,2.26-.21c4.76,1.24,9.41,2.74,13.55,5.57a34.42,34.42,0,0,0,6.6,3.73,43.05,43.05,0,0,0,6.75,1.58l.24-.74c-2.75-3.42-4.06-8.82-10.58-7.17a2.56,2.56,0,0,1,1.2-.65c1-.17,2-.3,3-.45-2.06-4.15-2-4.11-6-2.27a3.86,3.86,0,0,1-2.67.3c-2.66-1.06-5.22-2.37-8-3.67l9.76-6c-6.17-10.25-5.08-21.5-5.54-32.7-3.78,8.51-4.31,23.16,0,31.44l-25.28,13.84-.83-.66c.71-1.6,1-3.63,2.19-4.69,2.64-2.39,5.94-4.05,8.55-6.46,3.32-3,6.65-6.42,7.2-11.14a64.45,64.45,0,0,0,.1-12.5c-.21-2.69-1.34-5.31-2.3-8.86-1.66,1.7-3.32,2.72-4,4.18-2.54,5.66-4.95,11.4-7.06,17.24-1.56,4.31-2.58,8.83-3.84,13.25a95.24,95.24,0,0,1,10.06-31.24,14.69,14.69,0,0,0-2.48,1.24,25.86,25.86,0,0,0-10.1,9.91c-4.48,8-4.1,16.52-2.91,25.07.59,4.23-.47,6.81-4.52,8.23l-34.28,12.07c-9.09,3.2-18.25,6.22-27.25,9.66-8.62,3.29-17.21,6.73-25.57,10.63s-16.5,8.33-24.57,12.81c-3.65,2-7,4.61-6.05,9.79.33,1.79-.07,3.71.07,5.56.12,1.62,1.25,1.35,2.19.76,2-1.23,3.86-2.65,5.87-3.84q16.5-9.78,33.06-19.48c7.86-4.62,15.61-9.46,24.24-12.6,1.84-.67,3.58-1.63,5.42-2.29,6.13-2.19,12.37-4.09,18.4-6.5a29,29,0,0,1,16.88-1.13c4.22.86,4.13,1.08,4.36,5.35.16,3.15.75,6.25,3.81,8.08a35.57,35.57,0,0,0,5.68,3.21,40.24,40.24,0,0,0,8.15,2.06,4.49,4.49,0,0,0,4.85-5,15.67,15.67,0,0,0-12.53-13.25c-3.14-.59-6.39-.52-9.55-1s-6.35-1.38-9.53-2.09l-.1-.65a108.35,108.35,0,0,1,10.78-3.63c1.19-.28,2.78,1.1,4.06,1.67.27,1.87-.43,3.94,2.28,4.24,7.43.83,12.4,4.78,14.52,12a3.29,3.29,0,0,0,3.57,2.73c6.72-.09,13.44-.18,20.17-.38a43.63,43.63,0,0,0,5.28-.77c-13.07-7.2-27.25-11.42-41-16.77l.4-1ZM151.18,126.65c1.73-.73,3-1.19,4.22-1.8a10.19,10.19,0,0,1,7.75-.89c3.95,1.16,7.94,2.18,12,3a20.34,20.34,0,0,0,6.42.16,4.93,4.93,0,0,0,3.17-2c.31-.49-.77-2-1.42-2.91a22.07,22.07,0,0,0-2.35-2.39c-2.07-2.07-3.34-8.83-2.24-11.45l8.66,4.09.52-.71L180.27,104c4-.87,7.23-1.79,10.56-2.27,2.82-.4,5.72-.28,8.58-.43,2.69-.13,4.05-1.91,3.06-4.25a38.81,38.81,0,0,0-2.83-5.12c-2.6-4.28-5.43-8.46-2.7-13.83a3.23,3.23,0,0,0-.24-2.84c-.29-.42-1.87-.37-2.59,0-3.27,1.71-6.52,3.5-9.64,5.48-2.24,1.42-4.26,3.2-6.88,5.2.79-1.36,1.24-2.26,1.81-3.08,2.29-3.35,5.53-5.55,9-7.52,3.17-1.8,3.13-3.42,0-5.42-.4-.25-.87-.39-1.28-.62-6.2-3.51-10.27-8.51-11.56-15.71-.52-2.86-1.24-5.83-3.41-8.12-.36.24-.61.33-.74.51a13.65,13.65,0,0,0-.68,1.25,62.61,62.61,0,0,0-6,19.28c-.94,5.88-1.06,11.88-1.58,17.83a4.38,4.38,0,0,1-.58,2.17c-1.25,1.67-2.68,3.2-4.28,5.07-6.79-2.7-14.44-2.42-22.06-1.57-7,.78-14,1.92-21,3-1.68.25-3.31.79-5,1.2l0,.85a22,22,0,0,0,3.3,1.71c5.26,1.75,10.64,3.15,15.79,5.17a23.59,23.59,0,0,1,7.46,4.81c2.44,2.32,4.23,5.31,6.39,7.94a16.2,16.2,0,0,0,3,2.92,2.88,2.88,0,0,0,4.37-1.09c.59-1.12,1-2.32,1.54-3.48a12,12,0,0,1,7-6.44C153.39,112,151.9,118.79,151.18,126.65Zm186.48-21c-.33,4.22.41,8.49-2.9,11.9-1.05,1.1-2.2,2.1-3.17,3.27s-1,2.24.5,2.93c1,.46,2.1,1.13,3.06,1,5-.67,10.13-1.14,15-2.5,4.29-1.2,8.12-1.55,12,1,.64.42,1.53.44,3.17.88-1-4.13-1.58-7.66-2.84-10.91s-3.25-6.21-5-9.45c1.36,1.17,2.92,2.11,3.91,3.47a57.1,57.1,0,0,1,3.79,6.54c1.21,2.2,3,2.71,5,1.07a23.45,23.45,0,0,0,3.35-3.81c3.31-4.38,6.4-9.11,11.77-11.16,4.57-1.75,9.4-2.85,14.06-4.39,2.22-.74,4.32-1.85,6.48-2.79-.06-.41-.11-.83-.17-1.25-8.09-1.24-16.17-2.66-24.29-3.67s-16.47-1.4-24,1.49c-1.07-1.73-1.63-3.56-2.86-4.36a3.31,3.31,0,0,1-1.69-3.26,86.81,86.81,0,0,0-4-27.78c-1.13-3.73-2.84-7.28-4.29-10.91l-1.18,0c-1,2.52-2.36,5-2.8,7.57-1.32,7.86-5.62,13.27-12.6,16.79A6.42,6.42,0,0,0,325.94,69c-1.52,1.84-1.35,2.42.79,3.53,3.82,2,7.38,4.31,9.84,8A24.36,24.36,0,0,1,338,83.15c-4.45-3.84-9-7.27-14.22-9.55-1.42-.61-3.13-.53-4.71-.77a23.76,23.76,0,0,0,.53,4.5c.7,2.33.9,4.46-.44,6.64-1.63,2.67-3.22,5.37-4.65,8.15-.83,1.63-2,3.31-.9,5.32s2.82,1.37,4.43,1.46a74.94,74.94,0,0,1,8.1.5c3.05.5,6,1.46,9.44,2.32l-7.49,7.59.54.69ZM214.55,390.76l-.09,1c-5.1-.07-9.69,2.15-15,2.12-8.33,0-14,4.55-16.29,12.9-.92,3.35,1.14,6.36,4.61,6a23.61,23.61,0,0,0,6.85-1.54c7.1-3.07,11-4.58,10.69-13.8,0-1.62.51-2.24,2.06-2.48s3.14-1,4.74-1.15c2.65-.3,5.55-1.08,8-.36,8.26,2.44,16.35,5.45,24.52,8.21a4,4,0,0,0,2.26.43c2.58-.88,5.08-2,7.94-3.11a9.93,9.93,0,0,0-1.55-.92c-5.17-1.83-10.36-3.62-15.53-5.44q-19.91-7-39.81-14c-3.81-1.35-4.84-3.33-4.59-7.2a126.59,126.59,0,0,0,.44-15.57c-.56-9.63-6.06-16.28-14-21.19a8.34,8.34,0,0,0-1.83-.56c7.36,17.16,10.7,27.25,10.35,31.63-.32-1-.53-1.65-.75-2.32-2.73-8.15-5.29-16.37-8.28-24.42a13.85,13.85,0,0,0-6.35-7.39c-.84,4.1-1.75,7.88-2.36,11.7a19.87,19.87,0,0,0,1.69,12.46c3.06,5.86,8,10.14,13.71,13.37,2.49,1.4,2.56,3.37,2.6,6.2l-25.72-14.08c5-8.88,3.48-27.21-1.55-34.45a61.61,61.61,0,0,1,.83,18.62c-.6,6-2.73,11.45-4.67,17.19l9.83,6.08a38.52,38.52,0,0,0-4.61,1.92c-2.91,1.68-5.73,2.58-8.68.12-.32-.27-.87-.25-1.31-.37L150,374.09l4.55.83a12.68,12.68,0,0,1-3.17.49c-1,.16-2.44.29-3,1a64.59,64.59,0,0,0-3.87,6.26l.37.65a44.86,44.86,0,0,0,6.71-2c4.48-2.12,8.79-4.6,13.21-6.86,4.11-2.11,8-2.83,12.5-.19,6.24,3.66,13,6.48,20.31,10.06-1.46.74-2.31,1.53-3.17,1.54a34.82,34.82,0,0,1-7.58-.5c-5.18-1.12-10.22-.08-15,1.42a27.42,27.42,0,0,0-15.81,12.14c-1.23,2.07-2.48,4.12-3.58,5.93l42-15.93.4,1c-13.71,5.31-27.86,9.54-40.92,16.58a26.88,26.88,0,0,0,4,.56,85.67,85.67,0,0,0,21.28.81c2-.2,3.12-.88,3.72-2.9,2.12-7.11,7.05-11,14.37-11.85a2.32,2.32,0,0,0,2.31-2.46c.16-1.67,2.7-4,4.26-3.5C207.5,388.22,211,389.54,214.55,390.76ZM255.33,99.7a23.93,23.93,0,0,0-9.17-11.34c-11.25-7.22-23.12-7-35.25-2.63a2.4,2.4,0,0,0-1.15,1.92c.39,9.32,3.56,17.42,10.9,23.5,6.32,5.25,13.79,7.12,21.84,6.77a76.85,76.85,0,0,0,7.91-1.12c-1-3-1.87-5.66-2.84-8.58-4.88-.35-10-.9-14.75-3.42,4.39.92,8.71,2.18,13.33,1.54l-15.05-8,.26-.53,15.54,6.85.39-.47-9.1-9.89.44-.43,11.19,10Zm12.41,9c-.88,2.63-1.75,5.23-2.68,8a38.38,38.38,0,0,0,14.06,1c16-1.9,26.08-14.44,26.56-30a2.65,2.65,0,0,0-1.37-2c-9.49-3.52-19.14-4.16-28.74-.58-7.23,2.69-12.65,7.5-15.44,14.67l5.49,4.11,11.23-10,.41.47q-4.54,4.95-9.1,9.88l.39.44,15.58-6.8.24.53-15.16,8,.27.84,13.26-2.37.13.66Zm-4.19-17.45c2.8-1.92,5.51-4.17,8.57-5.73,2.17-1.12,2.51-2.4,2.24-4.51C273,70.88,267,64.14,258.8,59a2.56,2.56,0,0,0-2.28-.11c-8.33,5.61-14.28,12.84-15.47,23.23-.17,1.47.13,2.35,1.61,3a24,24,0,0,1,9.76,7.48A5.5,5.5,0,0,1,253,94l.59-.61c-.08-1.77-.16-3.54-.25-5.74,1.19,3.88,2.24,7.3,3.3,10.72l.53-.12,1.17-16.78h.38V97.82l.52.15,5-11.2.31.1C264.18,88.39,263.84,89.9,263.55,91.21Zm-4.33,316.4c3.42,2,6.55,3.82,9.64,5.67q22.39,13.37,44.79,26.74c.94.56,2.1.75,2.15-.9.07-2.41-.16-4.84,0-7.24a6.07,6.07,0,0,0-2.59-5.52c-5.94-4.93-12.82-8.31-19.7-11.57-7.93-3.76-16.14-6.94-24.25-10.31a4.07,4.07,0,0,0-2.69-.31C264.18,405.13,261.86,406.36,259.22,407.61Zm-12.17-288c-3.09-.52-5.66.71-8.42-.51s-6-1.2-9-2.06a3.07,3.07,0,0,0-3.38.73c-5,4.64-7.14,10.61-7.85,17.2a2.19,2.19,0,0,0,.75,1.78c7.78,4.4,17.47,5.61,25.59.2a2.13,2.13,0,0,0,1-1.24c.29-4.07.48-8.14.71-12.27l-2.59,2.39-.31-.33,4-4.57-.35-.33L239,124.74l-.25-.49Zm21.26,1-.38.36c1.32,1.52,2.65,3,4,4.54l-.28.25-2.6-2.23c.23,3.9.39,7.83.74,11.75a3,3,0,0,0,1.4,1.92c8.36,5.11,16.69,4,24.94-.32a2.14,2.14,0,0,0,.95-1.66c-.66-6.86-2.82-13.08-8.26-17.68a3.06,3.06,0,0,0-2.67-.4c-3.54,1.63-7.53,1.15-11.14,2.67-1.68.7-4-.2-6.09-.37l0,.41,7.89,4.41-.27.51Zm-10.6,26.6c1.15-.56,2.54-1.3,4-1.9,1.78-.75,3.74-1.22,3.09-3.93-.09-.4.63-1,1-1.49,1.66-1.93,2.33-4.21,1-6.36a7.93,7.93,0,0,1-.92-5.8,19.23,19.23,0,0,0,0-5,9.62,9.62,0,0,0-7.15-8.36c.34,1.5.68,2.93,1.08,4.69l-1.55-1.41V125h-.63v-6.74l-.58-.08c-.47,1.56-.95,3.13-1.43,4.69l-.34-.07c.49-2.78,1-5.55,1.57-8.78a19,19,0,0,0-3.17,1.67c-4.53,3.69-4.86,8.6-4,13.88a3.49,3.49,0,0,1-.36,2.33c-1.91,2.93-1.77,5.56.52,8.27a2.68,2.68,0,0,1,.73,1.83c-.35,1.84.82,2.36,2.13,2.93C254.34,145.64,255.94,146.42,257.71,147.23Zm160.72,130c15.26,1.4,27.34-3.65,34.63-21.5-2.85.85-5.56,1.3-7.94,2.44-8.27,3.95-16.42,8.14-24.6,12.27a2.1,2.1,0,0,0-1,1.21C419.11,273.42,418.82,275.23,418.43,277.22Zm-322.67,0c-.47-2-.89-3.94-1.42-5.85a2.24,2.24,0,0,0-1-1.23c-8.62-4.28-17.23-8.58-25.92-12.71-1.78-.84-3.86-1-6.09-1.59,3.06,7.16,6.89,13.26,13.19,17.2S88.15,278.09,95.76,277.23ZM446,290.91c-9.17-3.89-18.3-5.65-28.05-3.62.26,2.1.38,4,.79,5.87a2.49,2.49,0,0,0,1.58,1.52A33,33,0,0,0,446,290.91ZM96.2,287.2c-9.62-1.86-18.67-.19-27.66,3.73,8.61,5.09,17.44,5.94,26.57,3.62C95.5,292,95.84,289.68,96.2,287.2ZM131.47,122c2,13.74,3.75,27.14,2.54,40.89,1-.72,2.15-1.56,2.17-2.44.22-7,2.33-13.41,4.87-19.82.71-1.78,1-4.46.15-6C138.66,130.1,136.27,125.28,131.47,122Zm249.42,41c-1.68-13.85.15-27.28,2.09-40.92-4.12,2.83-6.08,6.93-8.64,10.57-2.07,2.92-1.88,5.84-.65,8.79,2.37,5.7,4.23,11.52,4.47,17.71C378.22,160.9,378.56,162.17,380.89,162.94Zm-245.83-.06.13.63c5.31.47,37.75-6.76,41.91-9.33-6.82-4.9-13.64-5-20.63-.48-5.36,3.49-10.94,6.48-17.26,7.9C137.8,161.92,136.44,162.45,135.06,162.88ZM379.17,164l.27-.78a8.43,8.43,0,0,0-2.55-1.42c-7.47-1.1-13.79-4.73-19.89-8.84a16.69,16.69,0,0,0-19.79,1.55C351,159.05,365.1,161.42,379.17,164Zm40.76,105.61c10.6-5.34,20.16-12,31.62-14.54-10.31-2.55-19.95-1.46-28.52,5.19a8.61,8.61,0,0,0-3,3.67C419.53,265.52,419.93,267.38,419.93,269.63Zm-357-14.53c11.34,2.41,20.75,9,31,14.19.14-2,.35-3.62.36-5.27a2.74,2.74,0,0,0-.69-1.88C84.73,254,74.36,252.27,62.92,255.1Zm348,68.56-.14,1c1.8,2,3.54,4.06,5.42,6a2.39,2.39,0,0,0,2,.51c3-.71,6.19-1.19,9-2.46,4.83-2.21,9.42-4.94,14.12-7.44l-.34-1Zm-307,.65c-5.52-.93-10.45-1.93-15.42-2.55s-10-.86-14.93-1.26a28.17,28.17,0,0,0,5.36,3.91c4.88,2.86,9.91,5.45,15.5,6.61,1.15.24,2.83.23,3.6-.44A75.15,75.15,0,0,0,103.89,324.31Zm51,74.87c1.79-3.79,5.47-6.06,6.38-10.51,1-4.71,3.1-9.18,4.65-13.53C152.37,379.74,150.88,390,154.86,399.18Zm192.76-24.4c3.68,5.32,5.13,10.94,6.48,16.61a3.72,3.72,0,0,0,.64,1.45c1.65,2,3.35,4,5,6C363.47,390.53,362.47,379.89,347.62,374.78Zm94.86-55.47.23-.53c-7.18-2.92-14.08-6.85-22.87-6.19a17.74,17.74,0,0,0,2.38,2.85c2.14,1.63,3,3.27.23,5.42Zm-370.72-.53.24.53,19.73,1.52-3.47-3.75,5.51-4.56C85.27,312.25,78.66,316,71.76,318.78Zm366.81-13.5c-5.05-4.43-10.25-6.66-16.58-6.3-4.64.27-5.07.46-5.26,5.15ZM97.41,304.13c-.08-4.59-.57-5.09-4.82-5.09-1.2,0-2.41-.08-3.6,0-5,.38-9,2.72-13,6.24Zm17.55-147,7.09,19.09c1.26-2.43,2.51-4.69,3.6-7a2.55,2.55,0,0,0,0-2.08C123,162.63,121.08,157.21,115,157.14ZM400,156.63c-2.1,1-4.55,1.43-6,2.89-2,1.95-3.34,4.62-4.82,7.07a3.12,3.12,0,0,0-.3,2.48c1,2.42,2.35,4.72,3.75,7.44,1.23-3.78,2.15-7,3.32-10.08S398.53,160.14,400,156.63ZM444.77,289c-6.5-7.55-21.57-10.1-27.79-4.87,0,2,1.2,2.07,2.76,1.85,5.26-.73,10.51-.95,15.71.46C438.51,287.23,441.55,288.09,444.77,289ZM69.62,289a7.11,7.11,0,0,0,1.32-.19c7.84-3,15.88-4.22,24.21-2.77,1.83.31,2.12-.76,2.24-2.1C88.31,278.87,78.47,281.4,69.62,289ZM436,307l-.16-.9-19.09-.92c.62,1.58.93,2.56,1.37,3.48s.91,2.52,1.64,2.71c2.06.51,4.48,1.1,6.36.47C429.58,310.62,432.74,308.61,436,307Zm-357.39-.88c4.46,3.65,8.93,6.92,15,5.42a3.09,3.09,0,0,0,1.91-1.05,55,55,0,0,0,2.12-5.34ZM384.16,174.63c-10.86-4.16-22.64-4.74-30.25,6.69C363.62,177.31,373.27,173.3,384.16,174.63ZM160.8,181.42c-4.2-4.95-8.27-9.17-15.27-9.34a40.55,40.55,0,0,0-15.31,2.43C141.09,173.31,150.74,177.25,160.8,181.42Zm.73,209.5c2.64-1.39,5.17-2.69,7.65-4.06.49-.27,1.17-.8,1.17-1.22.09-4,.06-8,.06-12l-.63-.28a10.8,10.8,0,0,0-2.17,1.89A44.33,44.33,0,0,0,161.53,390.92Zm191.4,0a43.06,43.06,0,0,0-6.35-16.09c-.43-.65-1.42-.93-2.47-1.57,0,4.36,0,8.18,0,12a2.2,2.2,0,0,0,1,1.56C347.68,388.21,350.28,389.51,352.93,390.89ZM255.68,102.55c-2.71.52-4.27,2.56-5.09,5.13a6.51,6.51,0,0,0,1.37,6.69C255.63,111.19,256.72,107.19,255.68,102.55Zm7.67,11.9c3.32-4.67,1.28-11.07-3.72-11.74-.1,2.18-.77,4.54-.15,6.5S262,112.74,263.35,114.45ZM128.47,255c1,1.66,1.83,3.08,2.87,4.83l3.81-7.12Zm257.88.09-7-2.33,3.44,6.53Z" transform="translate(-0.45 -0.5)"/><path d="M172.68,329.59l-1.55,3.59c-5.84-3.16-9.36-7.92-11.45-14.28a230.38,230.38,0,0,0-9.84-25.18c-2-4.31-5.83-7.75-8.45-11.82-2-3-3.49-6.46-2.21-10.3q14.48-43.53,29-87a12.43,12.43,0,0,0,.61-1.81c.28-1.71,1.23-2.26,2.94-2.36,3.56-.22,7.11-.51,10-3.14a5.85,5.85,0,0,0,1.82-6.79,10.14,10.14,0,0,0-8.3-7.07c1.12-3.38,2.14-6.62,3.34-9.8.17-.45,1.28-.78,1.95-.78q31.91.17,63.82.43,44.26.36,88.53.7c2.13,0,3.8.11,4,2.7a.85.85,0,0,0,.09.22c2.36,5.4,2.34,5.37-2.4,8.65-2.08,1.44-3.76,3.24-4,6-.23,3,.76,5.08,3.54,6.13a54.12,54.12,0,0,0,8.73,2.28c1.16.22,1.8.42,2.18,1.63q14.52,46,29.1,92c1.07,3.41-.71,6.09-2.44,8.88-4.33,7-8.75,13.93-12.48,21.22-2.23,4.35-3.2,9.33-4.81,14-1.08,3.14-2.25,6.26-3.45,9.36a3.61,3.61,0,0,1-1.16,1.47c-2.11,1.57-4.27,3.07-6.61,4.74-.66-2.88-2.32-3-4.46-1.88a37.45,37.45,0,0,0-4.24,2.15c-5.43,3.78-10.89,7.56-13.24,14.27a6.55,6.55,0,0,1-2.4,2.84q-30.57,22-61.2,43.87c-1.51,1.08-2.45,1-3.92-.05q-27.43-20.37-55-40.58a19,19,0,0,1-6.37-7.26,24.8,24.8,0,0,0-8.49-10.19C180.38,334.05,176.65,332,172.68,329.59Zm49.53-65.31c-3.94-1.43-7.41-3.07-11.07-3.94-8.28-2-16.64-3.56-25-5.24a1.84,1.84,0,0,0-1.6.58,2,2,0,0,0,.31,1.68c1.74,2.48,3.46,5,5.37,7.33,4.84,5.94,9.49,12.05,14.73,17.61A181.55,181.55,0,0,0,221.76,298a96.73,96.73,0,0,0,26,14.92,19.64,19.64,0,0,0,4.5,1.49c4,.53,4.14.42,4.39,4.57.59,9.73,1.08,19.46,1.63,29.19.05.9.21,1.8.32,2.65h16c0-1.28,0-2.39,0-3.49-.5-11.08-1-22.16-1.58-33.23-.1-1.73.42-2.53,1.92-2.93,3.77-1,6.61-3.46,9.39-6a18.17,18.17,0,0,0,6.36-15.08,5.8,5.8,0,0,0-4.86-5.56c-3.89-.86-7.9-1.49-11.6-2.9-13.11-5-26-10.42-37.71-18.34-5.93-4-11.9-8-18.05-11.65-9.37-5.6-19.32-9.37-30.54-9-4.52.16-8.94.37-12.94,2.63-.92.51-1.47,1.67-2.19,2.53a13.68,13.68,0,0,0,2.68,1.22c10.27,2.32,20.57,4.48,30.82,6.9A34.93,34.93,0,0,1,222.21,264.28Zm89.65-54.09c3.08,6.25,1.95,11.31-1.88,16.43-4.66,6.22-9.25,12.63-11.63,20.22a72.58,72.58,0,0,0-2.2,7.57c-.93,4.61-1.64,9.26-2.35,13.91-.07.49.43,1.07.66,1.61.52-.39,1.29-.67,1.52-1.19,1.72-3.84,3-7.89,5-11.56,4.73-8.67,9.72-17.19,14.71-25.71,2.82-4.81,5.81-9.51,8.79-14.21,3.93-6.2,3.86-13,3-19.9a5.8,5.8,0,0,0-.61-2.05c-2.7-4.95-6.46-8.67-12.09-10.13-2.86-.74-5.73-1.43-8.58-2.19a95.11,95.11,0,0,0-31.16-2.46,17.41,17.41,0,0,0-14.33,8.79c-1.8,3.07-1.15,4.64,2.29,5.18a21.92,21.92,0,0,0,13.09-1.69c4-1.89,8.09-3.34,12.78-3.38,5.72-.06,10.29,2.42,15,5,2.72,1.5,5.36,3.16,8,4.74l-.3.71c-1.43-.49-2.89-.93-4.3-1.5-4.49-1.81-8.8-4.32-13.92-3.65a12,12,0,0,0-2.49.9,16.31,16.31,0,0,0,1.3,2.09c5.58,6.57,7.83,13.83,4.47,22.16-1.52,3.75-3.32,7.39-4.88,11.13-2,4.86-1,9.55,1.11,14.09.31.67,1.12,1.12,2,1.93,1.72-7.66,6.07-13.39,9.87-19.44,2.68-4.26,5-8.69,5.35-13.93C310.18,212.47,311.25,211.35,311.86,210.19Zm-66-20.34.16.72c1.36,0,2.73-.09,4.08,0a5.8,5.8,0,0,0,5.91-3.23c.44-.82.51-2.5,0-3a16.52,16.52,0,0,0-5.21-4c-7.13-3-14.68-2.54-21.87-.82-7,1.67-12.75,6.27-17.57,11.53-8.08,8.8-15.72,18-23.65,27a15.11,15.11,0,0,0-3.88,13c.47,3.08,4.5,8.1,6.95,8.55,5.87,1.09,11.74,2.26,17.63,3.26a17,17,0,0,0,3.93-.26c-.25-1.19-.41-2.42-.77-3.58-2-6.52-4-13-6.22-19.53-1.59-4.77,2-8.27,6.94-7.69,1.59.19,3.17.43,4.74.71a5.49,5.49,0,0,0,5.76-2,34.58,34.58,0,0,0,4-7.22c1.86-4.64,4-9,9.08-10.77C239,191.24,242.47,190.67,245.82,189.85Zm45.12,91.74c5,2.32,6.14,6.5,4.81,11.75a8.93,8.93,0,0,0,.18,2.7,8.22,8.22,0,0,0,2.7-.62c3.21-2.06,6.45-4.11,9.46-6.46,5.69-4.45,11.12-9.25,16.86-13.64,6.52-5,14.15-7.85,21.86-10.43,1.79-.6,2.41-1.66,1.67-3.23a34.44,34.44,0,0,0-3.21-5.51c-5.16-7.16-11.46-13.09-19.48-16.91-4.34-2.08-8.91-2.74-11.88,2.45q-3.62,6.31-7.2,12.65C301.6,263.4,297.1,272.81,290.94,281.59ZM221,229.31l.41-.51a80.9,80.9,0,0,1,6.31,5.95,9,9,0,0,1,1.69,8.57,36.5,36.5,0,0,0-1.31,6.05,4.62,4.62,0,0,0,1.05,3.33c2.54,2.41,5.38,4.51,8,6.79,2.25,1.93,3.52,1.84,5.74-.24,3.95-3.71,7.83-7.53,12-10.95,9.42-7.68,17.83-16.21,23.9-26.84,1.18-2.07,2.38-4.17,1.59-7a19.65,19.65,0,0,0-2.66,1.06,60,60,0,0,1-20,7.45,52.82,52.82,0,0,1-33.49-4.83c-2.21-1.11-4.4-2.3-6.7-3.19-3.54-1.36-7,.16-7.59,3.45a14.75,14.75,0,0,0,.22,6.38c1.68,5.73,4,11.28,5.56,17,1.19,4.5,4.66,6,8.18,7.63a5.43,5.43,0,0,0,2.06,0C227.81,241.75,224.79,235.44,221,229.31ZM224,323.88a38.15,38.15,0,0,0,6-.88c4.27-1.25,8.47-2.76,12.65-4.3.68-.25,1.11-1.21,1.65-1.84a11.07,11.07,0,0,0-1.75-1.35c-7-3.56-14.28-6.69-21-10.7a85.83,85.83,0,0,1-21.75-18.95c-4.34-5.2-8.17-10.85-12-16.46-1.53-2.26-3.24-2.61-5.5-1.79a29.64,29.64,0,0,0-5.29,2.2c-4.27,2.58-8.86,4.88-12.5,8.19-3.86,3.52-3.27,5.38.41,8.11a16.19,16.19,0,0,0,2.84,1.77c5.24,2.36,10.5,4.66,15.76,7,5.72,2.53,11.21,5.35,15.48,10.17s8.71,9.33,13.07,14C215.07,322.29,218.87,323.84,224,323.88Zm68.19-68.06a47.63,47.63,0,0,0-.53-7.39,25.57,25.57,0,0,0-2.62-6.27c-.89-1.65-2.24-1.58-3.86-.64-4.6,2.66-9.07,5.76-14,7.62-8.62,3.26-15.56,8.61-21.75,15.16-2,2.11-1.78,3.56.79,4.84,2.28,1.14,4.61,2.17,6.93,3.21,5.18,2.29,10.28,4.75,15.56,6.78a12.71,12.71,0,0,0,16.93-8.32A107.79,107.79,0,0,0,292.16,255.82Zm-47.3,8.46.68.69a14.5,14.5,0,0,0,2.49-2c4.56-5.74,9.64-10.71,16.59-13.62a77,77,0,0,0,11.84-6.19A34.58,34.58,0,0,0,291.34,223a66.66,66.66,0,0,0,2.27-13.59,7.89,7.89,0,0,0-5-8.28,7.6,7.6,0,0,0-5.63.15c-1.84.95-.92,3.15-.54,5,.64,3.08,1.67,6.38,1.14,9.33a37,37,0,0,1-4.31,11.29c-3.6,6.42-9.37,11-14.81,15.82s-11,9.7-16.27,14.73A9.82,9.82,0,0,0,244.86,264.28ZM255.08,215l-.5-.18c.56-.73,1-1.77,1.71-2.14a42.51,42.51,0,0,1,7.59-3.15,4,4,0,0,1,3.54,1.19c.64,1.11.27,2.83.2,4.29a9.64,9.64,0,0,1-.63,2.14c.83.07,1.79.45,2.47.16,3.3-1.39,6.58-2.84,9.75-4.5,2.07-1.09,2-2.51.81-4.56a16.91,16.91,0,0,1-2-5.64c-.24-1.48-.53-2.13-2.13-2.07-3.51.12-7,.15-10.54.1a27.67,27.67,0,0,0-16.61,5.16c-5.44,3.8-5.66,10.06-.36,13.35,3.88,2.41,8.13,2.2,12.31,1.36A4,4,0,0,0,264,215.4a4.37,4.37,0,0,0-5.43-2.69A15.72,15.72,0,0,0,255.08,215Zm-11.7,6,.6-.71c-.39-1.17-.71-2.36-1.18-3.5-1.91-4.66-1.64-10,4.17-13,2.47-1.28,5-2.45,7.45-3.78a8.44,8.44,0,0,0,1.74-1.74c-.67-.51-1.29-1.36-2-1.46a64,64,0,0,0-9.24-.93c-6.36,0-11.37,2.47-14.31,8.49-.91,1.87-.81,3.35.62,4.75s2.75,2.57,4.48,4.18l-6.1-1.35c-2.4-.55-2.73,1.71-3.89,2.85.79.69,1.47,1.67,2.38,2,2.61,1,5.3,1.74,8,2.47C238.49,219.84,241,220.35,243.38,220.93Z" transform="translate(-0.45 -0.5)"/><path d="M109.18,321.49C102.6,323,96.31,323,90.69,318.1a30.64,30.64,0,0,0,2.44-2.79,73.71,73.71,0,0,0,4.52-7,9.29,9.29,0,0,0,.26-8.12c-2.16-5.29-1.17-10.48.56-15.65a4.37,4.37,0,0,0,.17-2.9,30.45,30.45,0,0,1-2.2-22.45,14.15,14.15,0,0,1,2.21,1.66c3,3.38,6,6.86,9.07,10.19.58.63,1.74.73,2.64,1.06.07,0,.16,0,.24,0,5.09.2,8.44-1.81,10.39-6.81,1.29-3.35,3.71-6.26,5.91-9.83,1.71,2.54,3.53,4.6,4.62,7,2.72,5.94,5.1,12,7.64,18.06a6.7,6.7,0,0,0,1.11,2.08c7.86,8,12.38,17.93,15.7,28.44,3.06,9.68,5.64,19.49,5.34,29.81-.32,10.47-3.89,19.8-9.63,28.39-3.55,5.31-7.45,10.39-10.84,15.8a46.23,46.23,0,0,0-7,22.14,21.19,21.19,0,0,0,0,2.39c.25,4.67.59,5,5,6.1,3.55.87,7.05,2,10.62,2.72,7,1.47,13.65,1.08,19.69-3.6A7.15,7.15,0,0,1,170,422c-2.76,7.44-7,14-13.53,18.71a39.48,39.48,0,0,1-21.28,7.72c-7.83.41-15.22-1.56-22.71-3.12-9-1.88-18-1.19-27-.66-6.5.39-13.06.06-19.58-.19-3.14-.12-5.49-2.08-7.37-4.47a37.19,37.19,0,0,1-7.73-18.54c-.33-2.55-1.13-5.16-.85-7.65a199.66,199.66,0,0,1,3.1-20.67A117.55,117.55,0,0,1,63.85,362.5c4.87-9.11,11.55-16.11,21.21-20.19a41.47,41.47,0,0,0,16-12.64c2-2.46,3.94-4.94,7.15-6,.57-.19.93-1,1.39-1.52Zm37.6,30.26.63.09a18,18,0,0,0,1.34-3.76c1-8.53,1.17-17.09-1.2-25.42a56.6,56.6,0,0,0-9.63-19.06c-2.64-3.43-2.64-3.54-4.89.17-4.63,7.63-10.23,14.05-19.27,16.57a2.87,2.87,0,0,0-1.46,2.1,50,50,0,0,0,4.35,26.36c3.32,7.32,8.31,14.09,7.51,22.83l.65.31,3.08-3.24c.38,2.37.9,4.7,1.08,7.05s0,4.89,0,7.6c4.93-4.23,7-10.39,10.55-15.45,3.74-5.27,5.45-11.41,6.22-18.43ZM133,432.48l-.11.89,12.29,4.47-8.69,4.26c1.56,1.65,6,2.74,8.31,1.89a35.54,35.54,0,0,0,16.51-12.18,34.8,34.8,0,0,0,5.4-11,79.16,79.16,0,0,1-7.83,1.44c-7.39.61-14.33-1.8-21.37-3.49-2.8-.67-5.65-1.14-9-1.8,2.42,6.66,7,10.46,12.88,13.8Zm-47-9,.09.73a5.11,5.11,0,0,0,1.41,0c7-2.08,13.87-4.33,20.88-6.23,5.27-1.43,10.64-2.58,16-3.56,2.27-.41,4.68-.07,7.1-.07,0-.6,0-1.31,0-2s-.18-1.55-.31-2.64C114.54,410,100.78,418.47,86,423.49Zm39.28-131.22a9.45,9.45,0,0,0-8,1.48c-1.73,1.26-2.15,3.08-2,5.23C123.93,295,123.93,295,125.23,292.27Z" transform="translate(-0.45 -0.5)"/><path d="M344.78,414.8c6.85,4.8,14,5.37,21.74,2.9a85.88,85.88,0,0,1,10.94-2.37c1.52-.27,1.91-1.19,2.15-2.43,1.28-6.49,0-12.66-2.12-18.79-2.8-8.24-8.12-14.94-13.11-21.87-5.66-7.86-10.26-16.32-11.1-26.11a75.84,75.84,0,0,1,.49-17.88,97.14,97.14,0,0,1,10-31.32c2.69-5,6.5-9.41,9.71-14.14a22.79,22.79,0,0,0,2-4c2.25-5.29,4.3-10.66,6.74-15.85,1.19-2.52,3.07-4.72,5-7.61,3,5.23,5.64,9.85,8.38,14.4a4.18,4.18,0,0,0,2.21,1.62c1.12.34,2.46,0,3.54.43,3.16,1.15,5-.35,6.81-2.69,2.3-2.95,4.89-5.68,7.41-8.46a12.59,12.59,0,0,1,1.92-1.42c1.3,4.5,1.9,8.87.83,13.26-.77,3.16-2.08,6.17-3,9.28a4,4,0,0,0,0,2.5c2.06,5.38,2.85,10.75.69,16.31-2.06,5.32.76,9.42,3.63,13.42a51.33,51.33,0,0,0,3.7,4.2c-5.66,4.42-11.78,5.18-18.4,3.29-.54,1.51-.38,2.06,1.19,2.75a14.74,14.74,0,0,1,5.7,4.14,47.21,47.21,0,0,0,19,14.94c8.79,3.81,14.72,10.55,19.06,18.78a125.85,125.85,0,0,1,13.32,44.19c.41,3.43,1.13,6.94.78,10.32-.88,8.34-3,16.39-8.34,23.17a13.21,13.21,0,0,1-9.66,5,94.14,94.14,0,0,1-20.55-.38c-11.66-1.37-23,.57-34.44,3.05-20.44,4.44-39.31-5.29-46.37-24.17C343.29,419.71,343.23,417.5,344.78,414.8Zm44.33-42.86.82-.44c-.93-6.22,1.66-11.59,4.41-16.65,5.38-9.93,8.47-20.21,7.51-31.6-.16-1.91-.81-2.81-2.61-3.37a25,25,0,0,1-12.9-8.64q-3.33-4.38-6.31-9c-1-1.51-1.56-1.74-2.76-.25a58.22,58.22,0,0,0-10.71,20.37c-2.31,7.91-2.21,16.09-1.49,24.23a30.9,30.9,0,0,0,1.42,5.31l.67-.09.84-1.72c.83,3.26,1.39,6.41,2.45,9.37a58.88,58.88,0,0,0,3.94,8.4c1.53,2.79,3.39,5.4,5,8.14s2.83,5.54,5.38,7c.33-4.8.66-9.56,1-14.7Zm-41.74,48.53a5,5,0,0,0,.07,1.06c3.83,11.09,11.2,18.78,22.32,22.57,2.83,1,5.63-.44,7.94-1.88l-8.79-4.38,12.29-4.56-.22-.82-7.71-1.55c5.4-3.4,9.71-7.38,12.07-13.48a6.92,6.92,0,0,0-1.65-.15c-3.43.74-6.87,1.45-10.27,2.29C364.86,421.67,356.33,424.31,347.37,420.47Zm35.19-5.79c2.06-.15,4-.63,5.81-.36a132.78,132.78,0,0,1,14.72,2.84c7.55,2,15,4.5,22.46,6.76a15.59,15.59,0,0,0,2.37.37,1.51,1.51,0,0,0-.88-1c-8.12-3.25-16.14-6.75-24.39-9.62A87.93,87.93,0,0,0,386.92,410C382.49,409.33,382.43,409.72,382.56,414.68Zm6.15-122.4c1.93,4.72,6.67,4.51,10.16,7,0-2.56-.4-4.5-2.31-5.75A9.6,9.6,0,0,0,388.71,292.28Z" transform="translate(-0.45 -0.5)"/><path d="M104.14,214.4c1.13-3.68,3.14-7.19,2.19-11.3a3.61,3.61,0,0,0-1.68-1.87,13.46,13.46,0,0,1-5.2-6.06c-1.6-3.2-3.83-6.12-5.18-9.41-.88-2.15-.69-4.73-1-7.51l11,18.72.72-.42L94.28,178.1c4.71.92,7.59,4,10.59,7.12,3.45,3.59,2.19,8.13,2.79,12.31h.9c.6-4.09,1.19-8.18,1.79-12.31-5.69,0-9.7-4-9.53-9.67a52.88,52.88,0,0,1,1-9.9c.51-2.32,3.6-3.07,5.66-1.79,5.23,3.23,7.46,8.11,6.57,14a3.26,3.26,0,0,0,.75,2.45,27.34,27.34,0,0,0,3.59,2.66l-.41.83,2.55-4.46c-3.83-1.69-5.45-4.71-6.33-8.67-.49-2.21-2.47-4.22-4.13-6-2.19-2.34-2.65-7.48-.55-10.07,3,.7,4.35,3.21,5.33,5.63,2.2,5.38,4,10.91,6,16.38.1.28.22.55.42,1a4.3,4.3,0,0,0,1-.74c1.44-2.1,3.14-4.09,4.12-6.39a6.44,6.44,0,0,0-.37-4.56,42,42,0,0,0-3.68-5.87,7.14,7.14,0,0,0-5-3.28c-5.11-.94-8.86-4.11-11.93-8.17a6.41,6.41,0,0,1-.82-7c1.3-2.63,3.9-3.77,6.75-3.8,6.94-.07,14.06,8.57,13.93,13.58a44.18,44.18,0,0,1-.79,5.37c2.29-3,2.09-6,.81-8.9a13.15,13.15,0,0,0-3-4.82,4.85,4.85,0,0,1-1.15-6.16c2.29-5,4.4-10.26,9.58-13.73.57,4,1.32,7.86,1.6,11.72.51,6.93.8,13.88,1,20.82a34.17,34.17,0,0,1-.52,6.92c-.18,1-1.11,1.95-1.47,3.18l2.21-1.92c3.73,1.6,7.41.26,11-.51,10.28-2.23,20.47-4.83,30.7-7.28.37-.09.76-.11,1.9-.25-1.71,2-3.09,3.43-4.26,5-1.41,1.89-3.26,1.93-5.31,1.73-4.27-.43-7.49,1.57-10.43,4.42a4.89,4.89,0,0,1-3,1.27c-4.88.17-9.76.23-14.64.12a29.84,29.84,0,0,1-6.28-1c-1.4-.33-2.34-.46-3.08,1.1-.6,1.26-1.59,2.33-2.18,3.79.52-.26,1.05-.5,1.56-.79a16,16,0,0,1,8.4-2.15c5.91.09,11.82,0,17.73-.06a2.64,2.64,0,0,0,1.71-.86,12.6,12.6,0,0,1,13-4.59c2.39.49,4.87.61,7.21,1.26,2.75.78,4.25,3,5.05,5.62a5.28,5.28,0,0,1-3.08,6.63c-8.68,3-16.29,2.82-23-4.81a4.74,4.74,0,0,0-3.28-1.54c-6.43.26-12.9.47-19.27,1.35-3.1.42-6,2.27-8.92,3.83,12.9-3.48,24.16,1.58,35.52,6.39-2.49,1-5,2-7.49,2.85a4.33,4.33,0,0,1-1.86.2c-4.52-.44-9.15-.46-13.51-1.56-3-.75-5.8-2.77-8.32-4.71-2.94-2.26-5.05-2.1-6.85,1.12-2.33,4.17-4.75,8.29-7.13,12.43l.48.6c.78-.34,1.59-.62,2.34-1,3.94-2,7.68-4.74,11.86-5.94s8.79-1.13,13.21-1.15a29.63,29.63,0,0,1,16.17,5,8.07,8.07,0,0,1,2.21,2c-14.55-.53-28.84,1.37-43.19,2.63l0,.58L160.63,193l.17.85c-2,3.13-5.19,4.92-8.32,6.54a39.35,39.35,0,0,1-10,3.78,26.42,26.42,0,0,1-13.16-.8c-2.62-.82-5.2-1.76-7.76-2.74a20.8,20.8,0,0,1-3.86-1.86c-3.48-2.24-3.76-2.2-5.53,1.14,5.5,2,11.08,4,16.6,6.15,1.27.49,2.27,1.63,3.54,2.13a14.58,14.58,0,0,0,4.49,1.07c5,.27,9.53,1.47,13.42,4.68,2.74,2.26,4.1,6.34,2.78,9.56a5.54,5.54,0,0,1-3.15,2.9c-6.28,1.68-15.22-4.75-14.93-11a4.77,4.77,0,0,0-2.33-4.4,42,42,0,0,0-20.69-7.91,1.55,1.55,0,0,0-1.24.75c-1.71,5-3.34,10-5,15.07l.65.5c2.19-1.27,4.35-2.59,6.57-3.81,3.06-1.69,6.09-3.5,9.29-4.89,3.58-1.57,7.24-1.81,10.3,1.34a3.81,3.81,0,0,1,1.29,2.14c.08,4.81,2,8.46,6.41,10.77l.08.74a30.53,30.53,0,0,1-4.27,1.42c-4,.7-8,1.28-12,1.81a7.56,7.56,0,0,1-3.07-.2c-4.83-1.46-9.62-3.11-14.47-4.48a2.69,2.69,0,0,0-2.21,1.4,38.56,38.56,0,0,0-1.64,7.4c-.58,5.68-.94,11.39-1.32,17.1a10.67,10.67,0,0,0,.46,2.5c3-1.46,3.88-4,4.76-6.37,2.23-6.08,6.8-10,11.92-13.45,4.76-3.2,10.15-4.37,15.73-4.84-5,4.41-10.12,8.66-15,13.21a64.33,64.33,0,0,0-12.38,15.59,129.93,129.93,0,0,1,27.54-27.32l.76.23c-.65,3.46-1.28,6.93-2,10.38-.19.93-.58,1.81-.84,2.72a13.63,13.63,0,0,1-6.87,8.72c-4.86,2.58-9.8,5-14.66,7.61-1.82,1-3.53,2.15-5.28,3.25-1.41.88-2.82,1.28-4-.31-1.72-2.35-3.31-4.81-5-7.15A22.06,22.06,0,0,0,93,251.08a3.67,3.67,0,0,0-2.81-.49,13.38,13.38,0,0,1-12.14-3c-1.75-1.48-3.32-3.18-4.94-4.8s-3.06-3.45-2.29-5.57c1-2.64,3.3-4.08,6.22-4.41,6.56-.74,11.67,1.75,15.84,6.72,1.47,1.76,3.51,3.1,3.22,5.79-.06.62,0,1.44-.42,1.78-1.87,1.7-1,2.85.57,4,.56.41,1,.95,2.08,1.94,0-2.85-.06-5.09,0-7.33,0-1.58.53-3.2.31-4.73a4.25,4.25,0,0,0-1.87-2.84c-6.06-3-12.3-5.69-17.7-10-2.61-2.08-3.2-5-4.48-7.65-2.88-6-1.29-12.28-1.26-18.53,5.37,11.34,13.19,20.66,22.09,29.19-7.47-9.21-15.6-18-20.28-29.14,12.18,4.62,22.48,11.14,25.3,25.55.62-2.78,1.09-5.12,1.66-7.45.48-1.92-.45-2.64-2.13-3.21a11.45,11.45,0,0,1-3.72-2.15c-2.12-1.81-3.83-4.2-6.15-5.67-4.4-2.8-6.56-7.11-8.39-11.56-2.55-6.23-4.1-12.74-3.42-19.77,2.15-.88,4.19.1,6.15.85,4.09,1.59,7,4.73,9.26,8.28,3.91,6.19,7.61,12.56,9.13,19.87a32.4,32.4,0,0,1,.3,4.75l.15,2.76ZM81.06,179.56l-.74.45q9.3,15.08,18.58,30.15l.82-.5Zm28.71,42.88.19.84L133.35,218l-.2-.94Zm3.55-39.51h-.66a31.47,31.47,0,0,1,.43,6,34,34,0,0,1-1.75,6,29.09,29.09,0,0,0,4.44-6.76c.35-.75-.11-2.06-.54-3A10.93,10.93,0,0,0,113.32,182.93ZM125,157.16l-.61.28c0,.5-.19,1.11,0,1.5,1.35,2.41,2.76,4.78,4.22,7.13a1.5,1.5,0,0,0,1.1.31c.28-.5.74-1.3.54-1.61C128.59,162.19,126.77,159.68,125,157.16ZM101.54,261l.7.07c.4-1.28.81-2.55,1.35-4.27-.77.17-1.71.21-1.74.41A34.37,34.37,0,0,0,101.54,261Z" transform="translate(-0.45 -0.5)"/><path d="M381.06,164l2.25,2c-3.13-5.85-2.36-11.9-2.11-17.74.35-8.27,1.42-16.5,2.21-25,3.81,1.53,5.31,4.63,6.87,7.44a46.61,46.61,0,0,1,3.36,8.77,3.33,3.33,0,0,1-.78,2.56c-2.46,3-4.75,6.11-4.54,10.23a11.33,11.33,0,0,0,1.44,4.22,15.21,15.21,0,0,1,12-18.52c3.08-.6,7,1,8.18,3.64,1,2.28.78,5.3-1.73,8.14-3.39,3.83-7.33,6.49-12.48,7.34A4.83,4.83,0,0,0,393,159a65.21,65.21,0,0,0-4.55,6.74,5.09,5.09,0,0,0,.47,6.19,58.87,58.87,0,0,1,3.62,5.77l.7-.13c.9-2.76,1.65-5.58,2.75-8.25,1.7-4.11,3.52-8.18,5.54-12.13.6-1.19,2.05-2,3.12-2.93,2.37,3,2.06,8.22-.37,10.37a14.83,14.83,0,0,0-5.09,9.48,5.07,5.07,0,0,1-1.62,2.6,35.62,35.62,0,0,1-3.54,2.72l2,3.71a31.06,31.06,0,0,0,3.62-2.87,3.31,3.31,0,0,0,.73-2.45,13.48,13.48,0,0,1,7-14.26,4.13,4.13,0,0,1,5.27,1.88,21.87,21.87,0,0,1,.5,13.63,8.17,8.17,0,0,1-9,6c.59,4.23,1.16,8.38,1.74,12.53l.83,0c.86-4.08-.61-8.65,2.76-12.21,3-3.16,5.94-6.26,10.14-7.76l.6.41-10.72,18.54.38.23c2-2.94,4.14-5.79,5.95-8.85s3.2-6.21,5-9.7c.11,3.49.76,6.54-1.63,9.4a28.89,28.89,0,0,0-3.61,6.46c-1.4,3-3.08,5.71-6.1,7.44a3.87,3.87,0,0,0-1.38,2.51c-.69,3.79,1.35,6.94,2.28,10.36l.61,0a6.56,6.56,0,0,0,.34-1.71c-.41-5.43,1.2-10.32,3.59-15.13,2.89-5.8,5.63-11.65,10.57-16.09,2.68-2.42,7.9-4.73,10.78-3.67a45.09,45.09,0,0,1-5,23,23.18,23.18,0,0,1-6.7,8.13c-2.5,1.94-4.57,4.45-6.94,6.58a6.28,6.28,0,0,1-2.85,1.41c-2.06.4-2.84,1.4-2.33,3.47.56,2.24,1,4.5,1.63,7.19,2.81-14.41,13.11-20.93,25.07-25.76l.86.64c-3.23,5-6.22,10.12-9.75,14.87s-7.56,9.12-11.13,13.85c8.86-8.54,16.68-17.86,22-29.22.49,5.43,1.34,10.88-.25,16.1-1,3.34-2.44,7-4.8,9.38-2.79,2.86-6.71,4.69-10.27,6.73-2.73,1.55-5.7,2.66-8.49,4.12a2.84,2.84,0,0,0-1.42,2c.07,4,.35,8,.58,12.48a23.68,23.68,0,0,0,3-2.82,2.29,2.29,0,0,0,0-2.07,5,5,0,0,1,.56-6.62c3.1-3.42,6.19-7,10.91-8,3.84-.82,7.88-1.49,11.19,1.69,2.32,2.23,2.63,3.42.72,5.94-3.44,4.55-7.09,9-13.31,9.82a11.39,11.39,0,0,1-5.11-.27,2.46,2.46,0,0,0-3.09.71c-1.92,2.44-3.6,5.06-5.44,7.56a19,19,0,0,1-3.25,3.81,3.44,3.44,0,0,1-3,.15c-5.66-2.91-11.26-6-16.82-9.06a49.41,49.41,0,0,1-6.6-4.24,9.75,9.75,0,0,1-2.63-3.61,43.76,43.76,0,0,1-3.83-16.6,127.64,127.64,0,0,1,28.05,27.61c-6.93-11.57-16.78-20.34-27.35-28.42l.13-.66c3.65.9,7.47,1.37,10.91,2.78a29.53,29.53,0,0,1,13,9.65c1.8,2.45,3,5.34,4.52,8,.92,1.58,2,3.08,3,4.61l.8-.19a7.72,7.72,0,0,0,.52-2c-.09-3.34-.13-6.69-.49-10-.49-4.48-1.09-9-2-13.4-.65-3.32-1.23-3.42-4.41-2.32-4.54,1.58-9.1,3.09-13.66,4.58a3.26,3.26,0,0,1-1.41-.1c-4.38-.68-8.77-1.3-13.13-2.09a11.46,11.46,0,0,1-3.91-1.77,12.51,12.51,0,0,0,6.5-11.33,3.29,3.29,0,0,1,1.2-1.94c3.21-2.91,8.47-3.16,12.32-.81,3.07,1.87,6.22,3.59,9.33,5.39,1.53.89,3,1.81,4.56,2.72l.62-.41-3.54-11.31c-.1-.3-.29-.56-.41-.85-1.67-4.07-1.7-4-5.84-3.31a44.27,44.27,0,0,0-16.78,7.25,5.08,5.08,0,0,0-2.63,4.74c.25,6-8.42,12.37-14.83,11-3.52-.78-4.74-5.83-2.74-9.5,2.86-5.23,7.84-7.1,13-7.36,4.38-.21,7.63-2.34,11.34-3.78,5.31-2.06,10.68-4,16-6-1.41-3.24-1.91-3.22-5.42-1.22-2.59,1.47-5.53,2.3-8.31,3.43a31.09,31.09,0,0,1-12.9,2.4c-3.19-.1-6.27-.45-9.06-2.07q-5.77-3.36-11.48-6.83a10.79,10.79,0,0,1-1.76-1.93c14.51-1,28.48,1.58,42.58,1.73-14.28-1.54-28.53-3.55-43.16-2.53,1.66-3,9.77-6.67,14.69-7.13,5.49-.51,11.11-1.24,16.34.67s9.82,4.71,14.72,7.13l.57-.56c-2.05-3.49-4.05-7-6.17-10.45a20.19,20.19,0,0,0-3-4.05c-1.37-1.32-2.87-.7-4.21.38-1.55,1.24-3.16,2.41-4.7,3.67-3.29,2.71-7.35,1.41-11,2.17a21.49,21.49,0,0,1-6.37.79,44,44,0,0,1-7.59-2,23,23,0,0,1-2.43-1c5.59-3.1,11.58-4.48,17.42-6.16a35.23,35.23,0,0,1,18.26.07,26.64,26.64,0,0,0-13.57-5c-4.6-.37-9.24-.34-13.87-.43a5.25,5.25,0,0,0-4.33,2c-3.09,3.5-6.93,6.34-11.73,6a41.55,41.55,0,0,1-12.05-2.86c-3-1.15-3-5.45-.26-8.11a12.46,12.46,0,0,1,8.08-3.89c1.18-.07,2.36-.28,3.54-.44a12.69,12.69,0,0,1,12,4.62,3.22,3.22,0,0,0,2.09,1c6.47.1,13-.15,19.41.23,2.71.16,5.35,1.57,8.11,2.44-.94-1.42-1.9-3-3-4.44a1.59,1.59,0,0,0-1.47-.28c-4.2,1.94-8.64,1-13,1.11-1.28,0-2.57-.14-3.84,0-4.16.35-7.87,0-10.91-3.58-1.82-2.13-4.84-2.53-7.6-2.12a5.93,5.93,0,0,1-6-2.49,19.27,19.27,0,0,1-2.86-4.27c1,.29,2,.62,3,.84,12.07,2.63,24.14,5.27,36.23,7.81C378.38,164.77,379.61,164.26,381.06,164Zm33.71,45.6.8.57q9.29-15.11,18.58-30.19l-.73-.45Zm-10,12.8-23.4-5.34-.18.91C389.06,219.33,396.57,222.55,404.75,222.44Zm-2.93-39.5-.7.05a14.74,14.74,0,0,0-1.8,2.09c-.45.77-1.14,1.94-.86,2.52,1.24,2.58,2.79,5,4.22,7.51-.12-2.24-1.05-4.21-1.3-6.27S401.65,184.91,401.82,182.94Zm-11.57-25.41-.79-.35c-1.74,2.47-3.52,4.92-5.16,7.46-.23.36.29,1.19.45,1.81.46-.29,1.08-.47,1.34-.87q2-3.09,3.78-6.29A5.8,5.8,0,0,0,390.25,157.53Zm20.66,99.52c.55,1.54,1,2.77,1.42,4l.82-.22c-.22-1.3-.42-2.6-.73-3.88A8.21,8.21,0,0,0,410.91,257.05Z" transform="translate(-0.45 -0.5)"/><path d="M361.71,404.75,320,388.9l-.4,1c13.71,5.35,27.89,9.57,41,16.77a43.63,43.63,0,0,1-5.28.77c-6.73.2-13.45.29-20.17.38a3.29,3.29,0,0,1-3.57-2.73c-2.12-7.22-7.09-11.17-14.52-12-2.71-.3-2-2.37-2.28-4.24-1.28-.57-2.87-2-4.06-1.67a108.35,108.35,0,0,0-10.78,3.63l.1.65c3.18.71,6.33,1.57,9.53,2.09s6.41.44,9.55,1a15.67,15.67,0,0,1,12.53,13.25,4.49,4.49,0,0,1-4.85,5,40.24,40.24,0,0,1-8.15-2.06,35.57,35.57,0,0,1-5.68-3.21c-3.06-1.83-3.65-4.93-3.81-8.08-.23-4.27-.14-4.49-4.36-5.35a29,29,0,0,0-16.88,1.13c-6,2.41-12.27,4.31-18.4,6.5-1.84.66-3.58,1.62-5.42,2.29-8.63,3.14-16.38,8-24.24,12.6q-16.54,9.72-33.06,19.48c-2,1.19-3.89,2.61-5.87,3.84-.94.59-2.07.86-2.19-.76-.14-1.85.26-3.77-.07-5.56-.95-5.18,2.4-7.77,6.05-9.79,8.07-4.48,16.21-8.9,24.57-12.81s17-7.34,25.57-10.63c9-3.44,18.16-6.46,27.25-9.66l34.28-12.07c4.05-1.42,5.11-4,4.52-8.23-1.19-8.55-1.57-17.1,2.91-25.07a25.86,25.86,0,0,1,10.1-9.91,14.69,14.69,0,0,1,2.48-1.24,95.24,95.24,0,0,0-10.06,31.24c1.26-4.42,2.28-8.94,3.84-13.25,2.11-5.84,4.52-11.58,7.06-17.24.65-1.46,2.31-2.48,4-4.18,1,3.55,2.09,6.17,2.3,8.86a64.45,64.45,0,0,1-.1,12.5c-.55,4.72-3.88,8.1-7.2,11.14-2.61,2.41-5.91,4.07-8.55,6.46-1.18,1.06-1.48,3.09-2.19,4.69l.83.66,25.28-13.84c-4.3-8.28-3.77-22.93,0-31.44.46,11.2-.63,22.45,5.54,32.7l-9.76,6c2.78,1.3,5.34,2.61,8,3.67a3.86,3.86,0,0,0,2.67-.3c4-1.84,3.94-1.88,6,2.27-1,.15-2,.28-3,.45a2.56,2.56,0,0,0-1.2.65c6.52-1.65,7.83,3.75,10.58,7.17l-.24.74a43.05,43.05,0,0,1-6.75-1.58,34.42,34.42,0,0,1-6.6-3.73c-4.14-2.83-8.79-4.33-13.55-5.57a3.57,3.57,0,0,0-2.26.21c-7.76,3.74-15.48,7.54-24.06,11.75,1.45.72,2.35,1.57,3.22,1.54,2.83-.1,5.64-.67,8.47-.77a45.78,45.78,0,0,1,7.85.35,30.87,30.87,0,0,1,15.26,6.16A31.71,31.71,0,0,1,361.71,404.75Z" transform="translate(-0.45 -0.5)"/><path d="M151.18,126.65c.72-7.86,2.21-14.66,7.93-20.06a12,12,0,0,0-7,6.44c-.52,1.16-.95,2.36-1.54,3.48a2.88,2.88,0,0,1-4.37,1.09,16.2,16.2,0,0,1-3-2.92c-2.16-2.63-4-5.62-6.39-7.94a23.59,23.59,0,0,0-7.46-4.81c-5.15-2-10.53-3.42-15.79-5.17a22,22,0,0,1-3.3-1.71l0-.85c1.66-.41,3.29-1,5-1.2,7-1.06,14-2.2,21-3,7.62-.85,15.27-1.13,22.06,1.57,1.6-1.87,3-3.4,4.28-5.07a4.38,4.38,0,0,0,.58-2.17c.52-5.95.64-11.95,1.58-17.83a62.61,62.61,0,0,1,6-19.28,13.65,13.65,0,0,1,.68-1.25c.13-.18.38-.27.74-.51,2.17,2.29,2.89,5.26,3.41,8.12,1.29,7.2,5.36,12.2,11.56,15.71.41.23.88.37,1.28.62,3.13,2,3.17,3.62,0,5.42-3.47,2-6.71,4.17-9,7.52-.57.82-1,1.72-1.81,3.08,2.62-2,4.64-3.78,6.88-5.2,3.12-2,6.37-3.77,9.64-5.48.72-.38,2.3-.43,2.59,0a3.23,3.23,0,0,1,.24,2.84c-2.73,5.37.1,9.55,2.7,13.83a38.81,38.81,0,0,1,2.83,5.12c1,2.34-.37,4.12-3.06,4.25-2.86.15-5.76,0-8.58.43-3.33.48-6.6,1.4-10.56,2.27l7.61,7.69-.52.71-8.66-4.09c-1.1,2.62.17,9.38,2.24,11.45a22.07,22.07,0,0,1,2.35,2.39c.65.9,1.73,2.42,1.42,2.91a4.93,4.93,0,0,1-3.17,2,20.34,20.34,0,0,1-6.42-.16c-4-.79-8-1.81-12-3a10.19,10.19,0,0,0-7.75.89C154.19,125.46,152.91,125.92,151.18,126.65Z" transform="translate(-0.45 -0.5)"/><path d="M337.66,105.68,328.61,110l-.54-.69,7.49-7.59c-3.42-.86-6.39-1.82-9.44-2.32a74.94,74.94,0,0,0-8.1-.5c-1.61-.09-3.41.4-4.43-1.46s.07-3.69.9-5.32c1.43-2.78,3-5.48,4.65-8.15,1.34-2.18,1.14-4.31.44-6.64a23.76,23.76,0,0,1-.53-4.5c1.58.24,3.29.16,4.71.77,5.26,2.28,9.77,5.71,14.22,9.55a24.36,24.36,0,0,0-1.41-2.62c-2.46-3.65-6-6-9.84-8-2.14-1.11-2.31-1.69-.79-3.53a6.42,6.42,0,0,1,1.95-1.69c7-3.52,11.28-8.93,12.6-16.79.44-2.6,1.84-5.05,2.8-7.57l1.18,0c1.45,3.63,3.16,7.18,4.29,10.91a86.81,86.81,0,0,1,4,27.78,3.31,3.31,0,0,0,1.69,3.26c1.23.8,1.79,2.63,2.86,4.36,7.52-2.89,15.78-2.5,24-1.49s16.2,2.43,24.29,3.67c.06.42.11.84.17,1.25-2.16.94-4.26,2-6.48,2.79-4.66,1.54-9.49,2.64-14.06,4.39-5.37,2-8.46,6.78-11.77,11.16a23.45,23.45,0,0,1-3.35,3.81c-2,1.64-3.78,1.13-5-1.07a57.1,57.1,0,0,0-3.79-6.54c-1-1.36-2.55-2.3-3.91-3.47,1.76,3.24,3.75,6.2,5,9.45s1.8,6.78,2.84,10.91c-1.64-.44-2.53-.46-3.17-.88-3.85-2.51-7.68-2.16-12-1-4.84,1.36-9.95,1.83-15,2.5-1,.13-2.09-.54-3.06-1-1.47-.69-1.4-1.86-.5-2.93s2.12-2.17,3.17-3.27C338.07,114.17,337.33,109.9,337.66,105.68Z" transform="translate(-0.45 -0.5)"/><path d="M214.55,390.76c-3.54-1.22-7.05-2.54-10.64-3.6-1.56-.46-4.1,1.83-4.26,3.5a2.32,2.32,0,0,1-2.31,2.46C190,394,185.09,397.86,183,405c-.6,2-1.74,2.7-3.72,2.9a85.67,85.67,0,0,1-21.28-.81,26.88,26.88,0,0,1-4-.56c13.06-7,27.21-11.27,40.92-16.58l-.4-1-42,15.93c1.1-1.81,2.35-3.86,3.58-5.93a27.42,27.42,0,0,1,15.81-12.14c4.74-1.5,9.78-2.54,15-1.42a34.82,34.82,0,0,0,7.58.5c.86,0,1.71-.8,3.17-1.54-7.33-3.58-14.07-6.4-20.31-10.06-4.52-2.64-8.39-1.92-12.5.19-4.42,2.26-8.73,4.74-13.21,6.86a44.86,44.86,0,0,1-6.71,2l-.37-.65a64.59,64.59,0,0,1,3.87-6.26c.52-.69,1.92-.82,3-1a12.68,12.68,0,0,0,3.17-.49l-4.55-.83,2.75-3.75c.44.12,1,.1,1.31.37,2.95,2.46,5.77,1.56,8.68-.12a38.52,38.52,0,0,1,4.61-1.92l-9.83-6.08c1.94-5.74,4.07-11.19,4.67-17.19a61.61,61.61,0,0,0-.83-18.62c5,7.24,6.52,25.57,1.55,34.45l25.72,14.08c0-2.83-.11-4.8-2.6-6.2-5.71-3.23-10.65-7.51-13.71-13.37a19.87,19.87,0,0,1-1.69-12.46c.61-3.82,1.52-7.6,2.36-11.7A13.85,13.85,0,0,1,179.3,339c3,8,5.55,16.27,8.28,24.42.22.67.43,1.34.75,2.32.35-4.38-3-14.47-10.35-31.63a8.34,8.34,0,0,1,1.83.56c7.92,4.91,13.42,11.56,14,21.19a126.59,126.59,0,0,1-.44,15.57c-.25,3.87.78,5.85,4.59,7.2q19.89,7,39.81,14c5.17,1.82,10.36,3.61,15.53,5.44a9.93,9.93,0,0,1,1.55.92c-2.86,1.14-5.36,2.23-7.94,3.11a4,4,0,0,1-2.26-.43c-8.17-2.76-16.26-5.77-24.52-8.21-2.41-.72-5.31.06-8,.36-1.6.19-3.14.91-4.74,1.15s-2.11.86-2.06,2.48c.33,9.22-3.59,10.73-10.69,13.8a23.61,23.61,0,0,1-6.85,1.54c-3.47.37-5.53-2.64-4.61-6,2.29-8.35,8-12.94,16.29-12.9,5.28,0,9.87-2.19,15-2.12Z" transform="translate(-0.45 -0.5)"/><path d="M255.33,99.7l-5.51,4.15-11.19-10-.44.43,9.1,9.89-.39.47-15.54-6.85-.26.53,15.05,8c-4.62.64-8.94-.62-13.33-1.54,4.7,2.52,9.87,3.07,14.75,3.42,1,2.92,1.85,5.6,2.84,8.58a76.85,76.85,0,0,1-7.91,1.12c-8.05.35-15.52-1.52-21.84-6.77-7.34-6.08-10.51-14.18-10.9-23.5a2.4,2.4,0,0,1,1.15-1.92c12.13-4.34,24-4.59,35.25,2.63A23.93,23.93,0,0,1,255.33,99.7Z" transform="translate(-0.45 -0.5)"/><path d="M267.74,108.66l15.13-3.16-.13-.66-13.26,2.37-.27-.84,15.16-8-.24-.53-15.58,6.8-.39-.44q4.54-4.93,9.1-9.88l-.41-.47-11.23,10-5.49-4.11c2.79-7.17,8.21-12,15.44-14.67,9.6-3.58,19.25-2.94,28.74.58a2.65,2.65,0,0,1,1.37,2c-.48,15.56-10.54,28.1-26.56,30a38.38,38.38,0,0,1-14.06-1C266,113.89,266.86,111.29,267.74,108.66Z" transform="translate(-0.45 -0.5)"/><path d="M263.55,91.21c.29-1.31.63-2.82,1-4.34l-.31-.1-5,11.2-.52-.15V81.44h-.38l-1.17,16.78-.53.12c-1.06-3.42-2.11-6.84-3.3-10.72.09,2.2.17,4,.25,5.74L253,94a5.5,5.5,0,0,0-.58-1.45A24,24,0,0,0,242.66,85c-1.48-.61-1.78-1.49-1.61-3,1.19-10.39,7.14-17.62,15.47-23.23a2.56,2.56,0,0,1,2.28.11C267,64.14,273,70.88,274.36,81c.27,2.11-.07,3.39-2.24,4.51C269.06,87,266.35,89.29,263.55,91.21Z" transform="translate(-0.45 -0.5)"/><path d="M259.22,407.61c2.64-1.25,5-2.48,7.39-3.44a4.07,4.07,0,0,1,2.69.31c8.11,3.37,16.32,6.55,24.25,10.31,6.88,3.26,13.76,6.64,19.7,11.57a6.07,6.07,0,0,1,2.59,5.52c-.2,2.4,0,4.83,0,7.24-.05,1.65-1.21,1.46-2.15.9q-22.41-13.33-44.79-26.74C265.77,411.43,262.64,409.62,259.22,407.61Z" transform="translate(-0.45 -0.5)"/><path d="M247.05,119.64l-8.35,4.61.25.49,8.23-4.11.35.33-4,4.57.31.33,2.59-2.39c-.23,4.13-.42,8.2-.71,12.27a2.13,2.13,0,0,1-1,1.24c-8.12,5.41-17.81,4.2-25.59-.2a2.19,2.19,0,0,1-.75-1.78c.71-6.59,2.81-12.56,7.85-17.2a3.07,3.07,0,0,1,3.38-.73c3,.86,6.24.85,9,2.06S244,119.12,247.05,119.64Z" transform="translate(-0.45 -0.5)"/><path d="M268.31,120.63l8.16,4.16.27-.51-7.89-4.41,0-.41c2.05.17,4.41,1.07,6.09.37,3.61-1.52,7.6-1,11.14-2.67a3.06,3.06,0,0,1,2.67.4c5.44,4.6,7.6,10.82,8.26,17.68a2.14,2.14,0,0,1-.95,1.66c-8.25,4.31-16.58,5.43-24.94.32a3,3,0,0,1-1.4-1.92c-.35-3.92-.51-7.85-.74-11.75l2.6,2.23.28-.25c-1.32-1.51-2.65-3-4-4.54Z" transform="translate(-0.45 -0.5)"/><path d="M257.71,147.23c-1.77-.81-3.37-1.59-5-2.31-1.31-.57-2.48-1.09-2.13-2.93a2.68,2.68,0,0,0-.73-1.83c-2.29-2.71-2.43-5.34-.52-8.27a3.49,3.49,0,0,0,.36-2.33c-.89-5.28-.56-10.19,4-13.88a19,19,0,0,1,3.17-1.67c-.58,3.23-1.08,6-1.57,8.78l.34.07c.48-1.56,1-3.13,1.43-4.69l.58.08V125h.63V117.7l1.55,1.41c-.4-1.76-.74-3.19-1.08-4.69a9.62,9.62,0,0,1,7.15,8.36,19.23,19.23,0,0,1,0,5,7.93,7.93,0,0,0,.92,5.8c1.35,2.15.68,4.43-1,6.36-.4.47-1.12,1.09-1,1.49.65,2.71-1.31,3.18-3.09,3.93C260.25,145.93,258.86,146.67,257.71,147.23Z" transform="translate(-0.45 -0.5)"/><path d="M418.43,277.22c.39-2,.68-3.8,1.11-5.58a2.1,2.1,0,0,1,1-1.21c8.18-4.13,16.33-8.32,24.6-12.27,2.38-1.14,5.09-1.59,7.94-2.44C445.77,273.57,433.69,278.62,418.43,277.22Z" transform="translate(-0.45 -0.5)"/><path d="M95.76,277.23c-7.61.86-14.82-.17-21.23-4.18s-10.13-10-13.19-17.2c2.23.56,4.31.75,6.09,1.59,8.69,4.13,17.3,8.43,25.92,12.71a2.24,2.24,0,0,1,1,1.23C94.87,273.29,95.29,275.23,95.76,277.23Z" transform="translate(-0.45 -0.5)"/><path d="M376.81,160.84a46.33,46.33,0,0,1-6.12-1.36c-7.27-2.63-13.57-7-19.61-11.7-3.58-2.81-4.59-7-5.47-11.1a63.45,63.45,0,0,1-.7-7,58.18,58.18,0,0,1,14.82,11.16c5.15,5.53,9.78,11.53,14.64,17.31.81,1,1.68,1.84,2.52,2.76Z" transform="translate(-0.45 -0.5)"/><path d="M137.59,160.92c1.43-1.77,3-3.46,4.28-5.32a89.73,89.73,0,0,1,25.65-24.75c.52-.32,1.06-.6,1.93-1.09-.25,8-1.38,15.18-8.47,20-6.34,4.29-12.61,8.66-20.13,10.7a23.82,23.82,0,0,1-3.18.4Z" transform="translate(-0.45 -0.5)"/><path d="M137.67,160.84c-.26-.62-.84-1.29-.74-1.84.71-4,1.39-8,2.42-11.91,2.22-8.51,8.75-13,16.29-15.94,4.44-1.76,9.28-2.55,13.94-3.78l.34.82c-.88.6-1.73,1.26-2.66,1.79-12.6,7.26-21.73,17.9-29.32,30.05a5,5,0,0,0-.34.89Z" transform="translate(-0.45 -0.5)"/><path d="M376.89,160.92c-6.51-10.95-14.3-20.77-25.06-27.91-2.42-1.6-4.84-3.21-7.14-5,7.55.7,14.64,2.52,21.07,6.65,6.7,4.31,9.55,10.8,11,18.2a60.58,60.58,0,0,1,.84,6.15c.05.59-.49,1.23-.75,1.85Z" transform="translate(-0.45 -0.5)"/><path d="M446,290.91a33,33,0,0,1-25.68,3.77,2.49,2.49,0,0,1-1.58-1.52c-.41-1.85-.53-3.77-.79-5.87C427.69,285.26,436.82,287,446,290.91Z" transform="translate(-0.45 -0.5)"/><path d="M96.2,287.2c-.36,2.48-.7,4.75-1.09,7.35-9.13,2.32-18,1.47-26.57-3.62C77.53,287,86.58,285.34,96.2,287.2Z" transform="translate(-0.45 -0.5)"/><path d="M131.47,122c4.8,3.29,7.19,8.11,9.73,12.65.86,1.52.56,4.2-.15,6-2.54,6.41-4.65,12.84-4.87,19.82,0,.88-1.18,1.72-2.17,2.44C135.22,149.13,133.51,135.73,131.47,122Z" transform="translate(-0.45 -0.5)"/><path d="M380.89,162.94c-2.33-.77-2.67-2-2.73-3.85-.24-6.19-2.1-12-4.47-17.71-1.23-2.95-1.42-5.87.65-8.79,2.56-3.64,4.52-7.74,8.64-10.57C381,135.66,379.21,149.09,380.89,162.94Z" transform="translate(-0.45 -0.5)"/><path d="M135.06,162.88c1.38-.43,2.74-1,4.15-1.28,6.32-1.42,11.9-4.41,17.26-7.9,7-4.56,13.81-4.42,20.63.48-4.16,2.57-36.6,9.8-41.91,9.33Z" transform="translate(-0.45 -0.5)"/><path d="M379.17,164c-14.07-2.6-28.19-5-42-9.49A16.69,16.69,0,0,1,357,153c6.1,4.11,12.42,7.74,19.89,8.84a8.43,8.43,0,0,1,2.55,1.42Z" transform="translate(-0.45 -0.5)"/><path d="M419.93,269.63c0-2.25-.4-4.11.12-5.68a8.61,8.61,0,0,1,3-3.67c8.57-6.65,18.21-7.74,28.52-5.19C440.09,257.59,430.53,264.29,419.93,269.63Z" transform="translate(-0.45 -0.5)"/><path d="M62.92,255.1c11.44-2.83,21.81-1.09,30.68,7a2.74,2.74,0,0,1,.69,1.88c0,1.65-.22,3.31-.36,5.27C83.67,264.15,74.26,257.51,62.92,255.1Z" transform="translate(-0.45 -0.5)"/><path d="M410.87,323.66l30-3.41.34,1c-4.7,2.5-9.29,5.23-14.12,7.44-2.8,1.27-6,1.75-9,2.46a2.39,2.39,0,0,1-2-.51c-1.88-1.92-3.62-4-5.42-6Z" transform="translate(-0.45 -0.5)"/><path d="M103.89,324.31A75.15,75.15,0,0,1,98,330.58c-.77.67-2.45.68-3.6.44-5.59-1.16-10.62-3.75-15.5-6.61a28.17,28.17,0,0,1-5.36-3.91c5,.4,10,.65,14.93,1.26S98.37,323.38,103.89,324.31Z" transform="translate(-0.45 -0.5)"/><path d="M154.86,399.18c-4-9.18-2.49-19.44,11-24-1.55,4.35-3.68,8.82-4.65,13.53C160.33,393.12,156.65,395.39,154.86,399.18Z" transform="translate(-0.45 -0.5)"/><path d="M347.62,374.78c14.85,5.11,15.85,15.75,12.12,24.07-1.65-2-3.35-4-5-6a3.72,3.72,0,0,1-.64-1.45C352.75,385.72,351.3,380.1,347.62,374.78Z" transform="translate(-0.45 -0.5)"/><path d="M442.48,319.31l-20,1.55c2.77-2.15,1.91-3.79-.23-5.42a17.74,17.74,0,0,1-2.38-2.85c8.79-.66,15.69,3.27,22.87,6.19Z" transform="translate(-0.45 -0.5)"/><path d="M407.41,265.88c.28,1.52-1.11,3.74-2.78,3.79a63.09,63.09,0,0,1-7.5-.49c-.3,0-.67-.4-.84-.71-2.1-3.8-4.17-7.62-6.58-12,2.82,1.42,5.14,2.54,7.4,3.76,3.48,1.88,6.93,3.83,10.38,5.75Z" transform="translate(-0.45 -0.5)"/><path d="M71.76,318.78c6.9-2.8,13.51-6.53,22-6.26l-5.51,4.56,3.47,3.75L72,319.31Z" transform="translate(-0.45 -0.5)"/><path d="M106.79,266.3,123.3,257l.29.46c-2,3.74-3.86,7.58-6.14,11.15-.56.89-2.48,1.12-3.82,1.27-3.17.35-6.24.18-7.78-3.36Z" transform="translate(-0.45 -0.5)"/><path d="M438.57,305.28l-21.84-1.15c.19-4.69.62-4.88,5.26-5.15C428.32,298.62,433.52,300.85,438.57,305.28Z" transform="translate(-0.45 -0.5)"/><path d="M97.41,304.13l-21.47,1.16c4-3.52,8.06-5.86,13-6.24,1.19-.09,2.4,0,3.6,0C96.84,299,97.33,299.54,97.41,304.13Z" transform="translate(-0.45 -0.5)"/><path d="M115,157.14c6.12.07,8,5.49,10.65,10a2.55,2.55,0,0,1,0,2.08c-1.09,2.33-2.34,4.59-3.6,7Z" transform="translate(-0.45 -0.5)"/><path d="M400,156.63c-1.49,3.51-2.91,6.62-4.1,9.8s-2.09,6.3-3.32,10.08c-1.4-2.72-2.7-5-3.75-7.44a3.12,3.12,0,0,1,.3-2.48c1.48-2.45,2.82-5.12,4.82-7.07C395.47,158.06,397.92,157.58,400,156.63Z" transform="translate(-0.45 -0.5)"/><path d="M444.77,289c-3.22-.88-6.26-1.74-9.32-2.56-5.2-1.41-10.45-1.19-15.71-.46-1.56.22-2.72.12-2.76-1.85C423.2,278.87,438.27,281.42,444.77,289Z" transform="translate(-0.45 -0.5)"/><path d="M69.62,289c8.85-7.55,18.69-10.08,27.77-5.06-.12,1.34-.41,2.41-2.24,2.1-8.33-1.45-16.37-.2-24.21,2.77A7.11,7.11,0,0,1,69.62,289Z" transform="translate(-0.45 -0.5)"/><path d="M436,307c-3.28,1.66-6.44,3.67-9.88,4.84-1.88.63-4.3,0-6.36-.47-.73-.19-1.17-1.74-1.64-2.71s-.75-1.9-1.37-3.48l19.09.92Z" transform="translate(-0.45 -0.5)"/><path d="M78.63,306.07l19-1a55,55,0,0,1-2.12,5.34,3.09,3.09,0,0,1-1.91,1.05C87.56,313,83.09,309.72,78.63,306.07Z" transform="translate(-0.45 -0.5)"/><path d="M384.16,174.63c-10.89-1.33-20.54,2.68-30.25,6.69C361.52,169.89,373.3,170.47,384.16,174.63Z" transform="translate(-0.45 -0.5)"/><path d="M160.8,181.42c-10.06-4.17-19.71-8.11-30.58-6.91a40.55,40.55,0,0,1,15.31-2.43C152.53,172.25,156.6,176.47,160.8,181.42Z" transform="translate(-0.45 -0.5)"/><path d="M161.53,390.92a44.33,44.33,0,0,1,6.08-15.68,10.8,10.8,0,0,1,2.17-1.89l.63.28c0,4,0,8-.06,12,0,.42-.68.95-1.17,1.22C166.7,388.23,164.17,389.53,161.53,390.92Z" transform="translate(-0.45 -0.5)"/><path d="M352.93,390.89c-2.65-1.38-5.25-2.68-7.79-4.11a2.2,2.2,0,0,1-1-1.56c-.08-3.81,0-7.63,0-12,1.05.64,2,.92,2.47,1.57A43.06,43.06,0,0,1,352.93,390.89Z" transform="translate(-0.45 -0.5)"/><path d="M106.79,266.3l-.94.17-1.3-1c2.53-3.82,6.48-5.25,10.15-7.14,4.25-2.18,8.31-4.76,12.68-6.66,2-.86,4.51-.52,6.79-.73l.11.83c-.61.23-1.21.51-1.83.7-8.62,2.54-16.21,7.18-23.81,11.79A9.83,9.83,0,0,0,106.79,266.3Z" transform="translate(-0.45 -0.5)"/><path d="M407.49,266a26.88,26.88,0,0,0-3.36-2.79c-7.56-4.58-15.3-8.81-24-11.26,1.55-1.06,5.49-1.17,7-.37,5.4,2.87,10.87,5.63,16.22,8.61,2.3,1.29,4.36,3,6.54,4.55l-.27.93-2.21.25Z" transform="translate(-0.45 -0.5)"/><path d="M255.68,102.55c1,4.64-.05,8.64-3.72,11.82a6.51,6.51,0,0,1-1.37-6.69C251.41,105.11,253,103.07,255.68,102.55Z" transform="translate(-0.45 -0.5)"/><path d="M263.35,114.45c-1.33-1.71-3.24-3.27-3.87-5.24s0-4.32.15-6.5C264.63,103.38,266.67,109.78,263.35,114.45Z" transform="translate(-0.45 -0.5)"/><path d="M128.47,255l6.68-2.29-3.81,7.12C130.3,258,129.45,256.62,128.47,255Z" transform="translate(-0.45 -0.5)"/><path d="M386.35,255.05l-3.53,4.2-3.44-6.53Z" transform="translate(-0.45 -0.5)"/><path class="cls-1" d="M222.21,264.28a34.93,34.93,0,0,0-15.88-8.36c-10.25-2.42-20.55-4.58-30.82-6.9a13.68,13.68,0,0,1-2.68-1.22c.72-.86,1.27-2,2.19-2.53,4-2.26,8.42-2.47,12.94-2.63,11.22-.39,21.17,3.38,30.54,9,6.15,3.66,12.12,7.63,18.05,11.65,11.7,7.92,24.6,13.37,37.71,18.34,3.7,1.41,7.71,2,11.6,2.9a5.8,5.8,0,0,1,4.86,5.56,18.17,18.17,0,0,1-6.36,15.08c-2.78,2.54-5.62,5-9.39,6-1.5.4-2,1.2-1.92,2.93.62,11.07,1.08,22.15,1.58,33.23.05,1.1,0,2.21,0,3.49h-16c-.11-.85-.27-1.75-.32-2.65-.55-9.73-1-19.46-1.63-29.19-.25-4.15-.35-4-4.39-4.57a19.64,19.64,0,0,1-4.5-1.49,96.73,96.73,0,0,1-26-14.92A181.55,181.55,0,0,1,205,282.3c-5.24-5.56-9.89-11.67-14.73-17.61-1.91-2.35-3.63-4.85-5.37-7.33a2,2,0,0,1-.31-1.68,1.84,1.84,0,0,1,1.6-.58c8.33,1.68,16.69,3.27,25,5.24C214.8,261.21,218.27,262.85,222.21,264.28Z" transform="translate(-0.45 -0.5)"/><path class="cls-1" d="M311.86,210.19c-.61,1.16-1.68,2.28-1.75,3.47-.33,5.24-2.67,9.67-5.35,13.93-3.8,6-8.15,11.78-9.87,19.44-.85-.81-1.66-1.26-2-1.93-2.08-4.54-3.15-9.23-1.11-14.09,1.56-3.74,3.36-7.38,4.88-11.13,3.36-8.33,1.11-15.59-4.47-22.16a16.31,16.31,0,0,1-1.3-2.09,12,12,0,0,1,2.49-.9c5.12-.67,9.43,1.84,13.92,3.65,1.41.57,2.87,1,4.3,1.5l.3-.71c-2.68-1.58-5.32-3.24-8-4.74-4.67-2.58-9.24-5.06-15-5-4.69,0-8.76,1.49-12.78,3.38a21.92,21.92,0,0,1-13.09,1.69c-3.44-.54-4.09-2.11-2.29-5.18a17.41,17.41,0,0,1,14.33-8.79A95.11,95.11,0,0,1,306.26,183c2.85.76,5.72,1.45,8.58,2.19,5.63,1.46,9.39,5.18,12.09,10.13a5.8,5.8,0,0,1,.61,2.05c.84,6.91.91,13.7-3,19.9-3,4.7-6,9.4-8.79,14.21-5,8.52-10,17-14.71,25.71-2,3.67-3.32,7.72-5,11.56-.23.52-1,.8-1.52,1.19-.23-.54-.73-1.12-.66-1.61.71-4.65,1.42-9.3,2.35-13.91a72.58,72.58,0,0,1,2.2-7.57c2.38-7.59,7-14,11.63-20.22C313.81,221.5,314.94,216.44,311.86,210.19Z" transform="translate(-0.45 -0.5)"/><path class="cls-1" d="M235.79,192.37c-5,1.77-7.22,6.13-9.08,10.77a34.58,34.58,0,0,1-4,7.22,5.49,5.49,0,0,1-5.76,2c-1.57-.28-3.15-.52-4.74-.71-5-.58-8.53,2.92-6.94,7.69,2.17,6.48,4.18,13,6.22,19.53.36,1.16.52,2.39.77,3.58a17,17,0,0,1-3.93.26c-5.89-1-11.76-2.17-17.63-3.26-2.45-.45-6.48-5.47-6.95-8.55a15.11,15.11,0,0,1,3.88-13c7.93-8.94,15.57-18.15,23.65-27,4.82-5.26,10.57-9.86,17.57-11.53,7.19-1.72,14.74-2.13,21.87.82a16.52,16.52,0,0,1,5.21,4c.53.55.46,2.23,0,3a5.8,5.8,0,0,1-5.91,3.23c-1.35-.1-2.72,0-4.08,0C245.93,190.33,239,191.24,235.79,192.37Z" transform="translate(-0.45 -0.5)"/><path class="cls-1" d="M290.94,281.59c6.16-8.78,10.66-18.19,15.77-27.25q3.57-6.33,7.2-12.65c3-5.19,7.54-4.53,11.88-2.45,8,3.82,14.32,9.75,19.48,16.91a34.44,34.44,0,0,1,3.21,5.51c.74,1.57.12,2.63-1.67,3.23-7.71,2.58-15.34,5.44-21.86,10.43-5.74,4.39-11.17,9.19-16.86,13.64-3,2.35-6.25,4.4-9.46,6.46a8.22,8.22,0,0,1-2.7.62,8.93,8.93,0,0,1-.18-2.7C297.08,288.09,295.9,283.91,290.94,281.59Z" transform="translate(-0.45 -0.5)"/><path class="cls-1" d="M221,229.31c3.76,6.13,6.78,12.44,5,20.17a5.43,5.43,0,0,1-2.06,0c-3.52-1.66-7-3.13-8.18-7.63-1.52-5.77-3.88-11.32-5.56-17a14.75,14.75,0,0,1-.22-6.38c.56-3.29,4-4.81,7.59-3.45,2.3.89,4.49,2.08,6.7,3.19A52.82,52.82,0,0,0,257.8,223a60,60,0,0,0,20-7.45,19.65,19.65,0,0,1,2.66-1.06c.79,2.84-.41,4.94-1.59,7-6.07,10.63-14.48,19.16-23.9,26.84-4.19,3.42-8.07,7.24-12,10.95-2.22,2.08-3.49,2.17-5.74.24-2.67-2.28-5.51-4.38-8-6.79a4.62,4.62,0,0,1-1.05-3.33,36.5,36.5,0,0,1,1.31-6.05,9,9,0,0,0-1.69-8.57,80.9,80.9,0,0,0-6.31-5.95Zm.29-7.07-.3.64,4.85,4c2.93,2.44,5.64,5.23,8.84,7.26,8,5.06,16.51,4.79,25,1.2,2.19-.93,4-2.72,6-4.12l-.38-.68C249.32,234.87,234.83,231.24,221.32,222.24Z" transform="translate(-0.45 -0.5)"/><path class="cls-1" d="M224,323.88c-5.1,0-8.9-1.59-12-4.87-4.36-4.66-8.84-9.22-13.07-14s-9.76-7.64-15.48-10.17c-5.26-2.31-10.52-4.61-15.76-7a16.19,16.19,0,0,1-2.84-1.77c-3.68-2.73-4.27-4.59-.41-8.11,3.64-3.31,8.23-5.61,12.5-8.19a29.64,29.64,0,0,1,5.29-2.2c2.26-.82,4-.47,5.5,1.79,3.82,5.61,7.65,11.26,12,16.46a85.83,85.83,0,0,0,21.75,18.95c6.74,4,14,7.14,21,10.7a11.07,11.07,0,0,1,1.75,1.35c-.54.63-1,1.59-1.65,1.84-4.18,1.54-8.38,3.05-12.65,4.3A38.15,38.15,0,0,1,224,323.88Z" transform="translate(-0.45 -0.5)"/><path class="cls-1" d="M289.62,270.81a12.71,12.71,0,0,1-16.93,8.32c-5.28-2-10.38-4.49-15.56-6.78-2.32-1-4.65-2.07-6.93-3.21-2.57-1.28-2.79-2.73-.79-4.84,6.19-6.55,13.13-11.9,21.75-15.16,4.92-1.86,9.39-5,14-7.62,1.62-.94,3-1,3.86.64a25.57,25.57,0,0,1,2.62,6.27,47.63,47.63,0,0,1,.53,7.39A107.79,107.79,0,0,1,289.62,270.81Z" transform="translate(-0.45 -0.5)"/><path class="cls-1" d="M244.86,264.28a9.82,9.82,0,0,1,3.35-6.83c5.32-5,10.79-9.88,16.27-14.73s11.21-9.4,14.81-15.82a37,37,0,0,0,4.31-11.29c.53-3-.5-6.25-1.14-9.33-.38-1.85-1.3-4.05.54-5a7.6,7.6,0,0,1,5.63-.15,7.89,7.89,0,0,1,5,8.28A66.66,66.66,0,0,1,291.34,223a34.58,34.58,0,0,1-14.88,20.15,77,77,0,0,1-11.84,6.19c-6.95,2.91-12,7.88-16.59,13.62a14.5,14.5,0,0,1-2.49,2Z" transform="translate(-0.45 -0.5)"/><path class="cls-1" d="M255.08,215a15.72,15.72,0,0,1,3.44-2.24A4.37,4.37,0,0,1,264,215.4a4,4,0,0,1-3.22,5.06c-4.18.84-8.43,1-12.31-1.36-5.3-3.29-5.08-9.55.36-13.35a27.67,27.67,0,0,1,16.61-5.16c3.51,0,7,0,10.54-.1,1.6-.06,1.89.59,2.13,2.07a16.91,16.91,0,0,0,2,5.64c1.17,2.05,1.26,3.47-.81,4.56-3.17,1.66-6.45,3.11-9.75,4.5-.68.29-1.64-.09-2.47-.16a9.64,9.64,0,0,0,.63-2.14c.07-1.46.44-3.18-.2-4.29a4,4,0,0,0-3.54-1.19,42.51,42.51,0,0,0-7.59,3.15c-.74.37-1.15,1.41-1.71,2.14Z" transform="translate(-0.45 -0.5)"/><path class="cls-1" d="M243.38,220.93c-2.43-.58-4.89-1.09-7.3-1.74-2.69-.73-5.38-1.5-8-2.47-.91-.34-1.59-1.32-2.38-2,1.16-1.14,1.49-3.4,3.89-2.85l6.1,1.35c-1.73-1.61-3.13-2.87-4.48-4.18s-1.53-2.88-.62-4.75c2.94-6,8-8.49,14.31-8.49a64,64,0,0,1,9.24.93c.72.1,1.34.95,2,1.46a8.44,8.44,0,0,1-1.74,1.74c-2.44,1.33-5,2.5-7.45,3.78-5.81,3-6.08,8.36-4.17,13,.47,1.14.79,2.33,1.18,3.5Z" transform="translate(-0.45 -0.5)"/><path class="cls-1" d="M146.78,351.75l-1-2.28c-.77,7-2.48,13.16-6.22,18.43C136,373,133.94,379.12,129,383.35c0-2.71.14-5.17,0-7.6s-.7-4.68-1.08-7.05l-3.08,3.24-.65-.31c.8-8.74-4.19-15.51-7.51-22.83a50,50,0,0,1-4.35-26.36,2.87,2.87,0,0,1,1.46-2.1c9-2.52,14.64-8.94,19.27-16.57,2.25-3.71,2.25-3.6,4.89-.17a56.6,56.6,0,0,1,9.63,19.06c2.37,8.33,2.22,16.89,1.2,25.42a18,18,0,0,1-1.34,3.76Z" transform="translate(-0.45 -0.5)"/><path class="cls-1" d="M133,432.48l8.43-1.68c-5.87-3.34-10.46-7.14-12.88-13.8,3.31.66,6.16,1.13,9,1.8,7,1.69,14,4.1,21.37,3.49a79.16,79.16,0,0,0,7.83-1.44,34.8,34.8,0,0,1-5.4,11A35.54,35.54,0,0,1,144.79,444c-2.31.85-6.75-.24-8.31-1.89l8.69-4.26-12.29-4.47Z" transform="translate(-0.45 -0.5)"/><path class="cls-1" d="M86,423.49c14.83-5,28.59-13.53,45.18-13.78.13,1.09.26,1.86.31,2.64s0,1.4,0,2c-2.42,0-4.83-.34-7.1.07-5.38,1-10.75,2.13-16,3.56-7,1.9-13.92,4.15-20.88,6.23a5.11,5.11,0,0,1-1.41,0Z" transform="translate(-0.45 -0.5)"/><path class="cls-1" d="M125.23,292.27c-1.3,2.68-1.3,2.68-10,6.71-.16-2.15.26-4,2-5.23A9.45,9.45,0,0,1,125.23,292.27Z" transform="translate(-0.45 -0.5)"/><path class="cls-1" d="M389.11,371.94l-3.3-3.66c-.35,5.14-.68,9.9-1,14.7-2.55-1.46-3.8-4.36-5.38-7s-3.5-5.35-5-8.14a58.88,58.88,0,0,1-3.94-8.4c-1.06-3-1.62-6.11-2.45-9.37l-.84,1.72-.67.09a30.9,30.9,0,0,1-1.42-5.31c-.72-8.14-.82-16.32,1.49-24.23A58.22,58.22,0,0,1,377.27,302c1.2-1.49,1.79-1.26,2.76.25q3,4.63,6.31,9a25,25,0,0,0,12.9,8.64c1.8.56,2.45,1.46,2.61,3.37,1,11.39-2.13,21.67-7.51,31.6-2.75,5.06-5.34,10.43-4.41,16.65Z" transform="translate(-0.45 -0.5)"/><path class="cls-1" d="M347.37,420.47c9,3.84,17.49,1.2,26.05-.9,3.4-.84,6.84-1.55,10.27-2.29a6.92,6.92,0,0,1,1.65.15c-2.36,6.1-6.67,10.08-12.07,13.48l7.71,1.55.22.82-12.29,4.56,8.79,4.38c-2.31,1.44-5.11,2.84-7.94,1.88-11.12-3.79-18.49-11.48-22.32-22.57A5,5,0,0,1,347.37,420.47Z" transform="translate(-0.45 -0.5)"/><path class="cls-1" d="M382.56,414.68c-.13-5-.07-5.35,4.36-4.67a87.93,87.93,0,0,1,15.73,3.69c8.25,2.87,16.27,6.37,24.39,9.62a1.51,1.51,0,0,1,.88,1,15.59,15.59,0,0,1-2.37-.37c-7.49-2.26-14.91-4.73-22.46-6.76a132.78,132.78,0,0,0-14.72-2.84C386.55,414.05,384.62,414.53,382.56,414.68Z" transform="translate(-0.45 -0.5)"/><path class="cls-1" d="M388.71,292.28a9.6,9.6,0,0,1,7.85,1.28c1.91,1.25,2.3,3.19,2.31,5.75C395.38,296.79,390.64,297,388.71,292.28Z" transform="translate(-0.45 -0.5)"/><path class="cls-1" d="M81.06,179.56l18.66,30.1-.82.5Q89.61,195.09,80.32,180Z" transform="translate(-0.45 -0.5)"/><path class="cls-1" d="M109.77,222.44l23.38-5.36.2.94L110,223.28Z" transform="translate(-0.45 -0.5)"/><path class="cls-1" d="M113.32,182.93a10.93,10.93,0,0,1,1.92,2.25c.43.9.89,2.21.54,3a29.09,29.09,0,0,1-4.44,6.76,34,34,0,0,0,1.75-6,31.47,31.47,0,0,0-.43-6Z" transform="translate(-0.45 -0.5)"/><path class="cls-1" d="M125,157.16c1.77,2.52,3.59,5,5.28,7.61.2.31-.26,1.11-.54,1.61a1.5,1.5,0,0,1-1.1-.31c-1.46-2.35-2.87-4.72-4.22-7.13-.22-.39,0-1,0-1.5Z" transform="translate(-0.45 -0.5)"/><path class="cls-1" d="M101.54,261a34.37,34.37,0,0,1,.31-3.79c0-.2,1-.24,1.74-.41-.54,1.72-1,3-1.35,4.27Z" transform="translate(-0.45 -0.5)"/><path class="cls-1" d="M414.77,209.64l18.65-30.07.73.45q-9.28,15.09-18.58,30.19Z" transform="translate(-0.45 -0.5)"/><path class="cls-1" d="M404.75,222.44c-8.18.11-15.69-3.11-23.58-4.43l.18-.91Z" transform="translate(-0.45 -0.5)"/><path class="cls-1" d="M401.82,182.94c-.17,2-.67,4-.44,5.9s1.18,4,1.3,6.27c-1.43-2.49-3-4.93-4.22-7.51-.28-.58.41-1.75.86-2.52a14.74,14.74,0,0,1,1.8-2.09Z" transform="translate(-0.45 -0.5)"/><path class="cls-1" d="M390.25,157.53a5.8,5.8,0,0,1-.38,1.76q-1.8,3.19-3.78,6.29c-.26.4-.88.58-1.34.87-.16-.62-.68-1.45-.45-1.81,1.64-2.54,3.42-5,5.16-7.46Z" transform="translate(-0.45 -0.5)"/><path class="cls-1" d="M410.91,257.05a8.21,8.21,0,0,1,1.51-.09c.31,1.28.51,2.58.73,3.88l-.82.22C411.9,259.82,411.46,258.59,410.91,257.05Z" transform="translate(-0.45 -0.5)"/><path d="M221.32,222.24c13.51,9,28,12.63,44,8.34l.38.68c-2,1.4-3.8,3.19-6,4.12-8.45,3.59-17,3.86-25-1.2-3.2-2-5.91-4.82-8.84-7.26l-4.85-4Z" transform="translate(-0.45 -0.5)"/></svg>